<?xml version="1.0" standalone="no"?>
<!DOCTYPE svg PUBLIC "-//W3C//DTD SVG 1.1//EN" "http://www.w3.org/Graphics/SVG/1.1/DTD/svg11.dtd">
<svg xmlns="http://www.w3.org/2000/svg" viewBox="0 0 300 79.6236" preserveAspectRatio="xMidYMid meet" width="300" height="79.62359619140625">
  <defs/>
  <g transform="matrix(2.8437,0,0,2.8437,-4.5508,-34.1242)" fill="#38b6ff">
    <path d="M22.518 21.279c0 5.116-4.162 9.278-9.278 9.278h-4.604l5.076 5.801c0.799 0.913 0.706 2.3-0.207 3.099-0.416 0.365-0.932 0.543-1.445 0.543-0.611 0-1.219-0.254-1.653-0.75l-8.263-9.443c-0.568-0.649-0.703-1.569-0.347-2.354s1.138-1.289 1.999-1.289h9.443c2.694 0 4.886-2.192 4.886-4.886s-2.192-4.886-4.886-4.886h-4.141l4.514 4.514c0.858 0.858 0.858 2.248 0 3.106s-2.248 0.858-3.106 0l-8.263-8.263c-0.628-0.628-0.816-1.573-0.476-2.393s1.141-1.355 2.029-1.355h9.443c5.116 0 9.278 4.162 9.278 9.278zM26.65 19.412c1.213 0 2.196 0.983 2.196 2.196v16.196c0 1.213-0.983 2.196-2.196 2.196s-2.196-0.983-2.196-2.196V21.608c0-1.213 0.983-2.196 2.196-2.196zM50.203 19.644c1.085 0.542 1.524 1.861 0.982 2.946l-8.098 16.196c-0.372 0.744-1.132 1.214-1.964 1.214s-1.592-0.47-1.964-1.214l-8.098-16.196c-0.542-1.085-0.103-2.404 0.982-2.946s2.404-0.103 2.946 0.982l6.134 12.268 6.134-12.267c0.542-1.085 1.861-1.524 2.946-0.982zM69.754 19.412c1.213 0 2.196 0.983 2.196 2.196v16.196c0 1.213-0.983 2.196-2.196 2.196-1.107 0-2.02-0.82-2.172-1.885-1.677 1.186-3.721 1.885-5.926 1.885-5.676 0-10.294-4.618-10.294-10.294s4.618-10.294 10.294-10.294c2.205 0 4.249 0.699 5.926 1.885 0.152-1.065 1.065-1.885 2.172-1.885zM61.656 35.608c3.254 0 5.902-2.648 5.902-5.902s-2.648-5.902-5.902-5.902-5.902 2.648-5.902 5.902 2.648 5.902 5.902 5.902zM84.355 35.608c1.213 0 2.196 0.983 2.196 2.196s-0.983 2.196-2.196 2.196c-5.767 0-10.459-4.692-10.459-10.459V14.196c0-1.213 0.983-2.196 2.196-2.196s2.196 0.983 2.196 2.196v15.345c0 3.345 2.722 6.067 6.067 6.067zM96.804 19.412c5.676 0 10.294 4.618 10.294 10.294 0 1.213-0.983 2.196-2.196 2.196H91.325c0.873 2.17 2.999 3.706 5.478 3.706 1.576 0 3.059-0.614 4.173-1.729 0.858-0.857 2.248-0.857 3.106 0 0.858 0.858 0.858 2.248 0 3.106-1.945 1.944-4.53 3.015-7.279 3.015-5.676 0-10.294-4.618-10.294-10.294s4.618-10.294 10.294-10.294zM91.326 27.51h10.957c-0.873-2.17-2.999-3.706-5.478-3.706s-4.606 1.536-5.478 3.706z"/>
  </g>
</svg>