<svg width="42" height="50" viewBox="0 0 42 50" fill="none" xmlns="http://www.w3.org/2000/svg">
    <path fill-rule="evenodd" clip-rule="evenodd" d="M6.41484 6.57093H11.1079L12.5608 2.12842L14.0106 6.57093H18.7037L14.9117 9.31905L16.3616 13.7616L12.5608 11.0135L8.75686 13.7616L10.2068 9.31905L6.41484 6.57093ZM31.8631 9.46504L33.313 13.9076L29.5122 11.1594L25.7083 13.9076L27.1582 9.46504L23.3663 6.71693H28.0593L29.5122 2.27441L30.962 6.71693H35.6551L31.8631 9.46504ZM29.2405 34.5949L31.3586 30.0473L33.0949 34.5949H29.2405ZM39.4574 39.934C39.1255 39.6726 38.5609 39.0057 38.2868 38.3907C38.0124 37.7564 37.1609 35.2416 36.617 33.6631C36.0691 32.06 33.1945 23.8855 33.0661 23.5152C32.9369 23.1617 32.7208 23.1345 32.4302 23.7888C32.1476 24.4395 30.7944 27.5608 29.8134 29.746C28.8383 31.9517 27.7676 34.4378 27.0419 35.9444C26.3081 37.4514 25.7999 39.1469 24.1116 39.9826V27.9549C25.4262 27.9549 25.8746 28.4245 25.9289 29.1559C25.9805 29.9106 26.1304 30.6258 26.7675 30.6258C27.384 30.6258 27.2493 28.6856 27.2766 27.625C27.3097 26.4722 27.2905 24.4193 27.2905 23.9574C27.2905 23.4875 27.1764 22.8205 26.7675 22.7965C26.3398 22.772 26.0447 23.3431 26.0035 23.7486C25.9805 24.1582 26.2155 25.5077 24.1348 25.5077V21.125C24.1348 21.125 26.2338 20.8919 27.5086 20.8919C28.7715 20.8919 30.3126 21.3901 31.0348 21.7197C31.7611 22.0377 32.8626 22.7965 33.1315 22.6394C33.3359 22.5271 32.6462 20.8803 32.2774 19.7957C31.9069 18.7307 31.4832 17.6099 31.3177 17.2327C31.151 16.8387 30.9068 16.7064 30.3039 17.1521C29.6854 17.5741 28.7256 17.9912 27.4255 17.9912C26.1217 18.0242 23.209 17.9279 22.1325 17.9279C21.0546 17.9279 18.9905 18.0241 18.1913 18.0241C17.4017 18.0241 15.5763 17.9432 14.2867 17.4536C13.0011 16.9712 11.1844 15.5333 10.7834 15.0873C10.3829 14.6416 9.96738 15.0748 10.3495 16.1116C10.7442 17.1601 11.6453 18.6589 13.3296 19.888C15.0243 21.1413 16.9804 21.2696 19.5994 20.9925V40.7088C19.5994 41.6049 19.2809 42.288 18.2134 42.8261C17.1607 43.364 16.8907 43.6898 17.4558 43.8784C17.9939 44.0555 19.9061 44.437 20.7471 44.8862C21.3305 45.1915 21.9307 46.2042 22.7926 46.8073C23.6632 47.422 24.8669 47.9197 26.6409 47.1646C28.3911 46.4214 28.8856 45.6257 29 45.4373C29.1095 45.2487 29.2405 44.7663 28.1997 44.8634C26.9072 44.9711 25.8313 44.385 25.567 43.9428C25.1021 43.1592 24.512 42.2357 24.1116 42.0104V40.7088H29.3384C29.8471 40.7088 29.9101 40.0266 29.1923 39.9616C28.462 39.8894 27.6918 39.2071 27.6918 38.4151C27.6918 37.6398 28.5203 36.3903 28.5203 36.3903H33.6513C33.6513 36.3903 34.2204 37.4631 34.208 38.1424C34.1746 38.909 33.5845 39.8287 33.1945 40.0266C32.8086 40.2268 32.7328 40.6086 33.2613 40.6086H39.2164C39.5828 40.6086 39.7902 40.2029 39.4574 39.934ZM9.09091 34.2541L11.2073 29.7099L12.9682 34.2541H9.09091ZM19.2855 39.5846C18.9013 39.2065 18.3483 38.5681 18.1282 38.0135C17.925 37.4673 17.0544 34.9684 16.4512 33.2209C15.8463 31.4653 15.026 29.1761 14.4716 27.5811C13.9175 26.0107 13.1715 23.8971 12.947 23.2385C12.7353 22.5872 12.4287 23.1262 12.2748 23.4592C12.131 23.7848 9.26951 30.2683 8.42243 32.1767C7.57506 34.1005 6.27701 37.0011 5.69216 37.9898C5.12067 38.9901 4.43737 39.4196 3.91031 39.6608C3.38847 39.8896 3.12509 39.7694 2.99383 39.926C2.99383 39.926 2.91543 40.1184 2.99383 40.2475C2.99383 40.2475 3.05017 40.3757 3.38847 40.3757H8.84409C8.84409 40.3757 9.57676 40.4603 9.56049 40.0542C9.53377 39.5522 8.94167 39.7694 8.48459 39.4722C7.94301 39.11 7.58554 38.6524 7.5626 38.2105C7.52891 37.5152 7.97553 36.7804 8.33533 36.0612H13.5371C13.8363 36.8804 14.1766 37.3827 13.998 38.2146C13.8092 39.0626 13.2009 39.6848 12.9221 39.7934C12.6378 39.9141 12.677 40.2715 13.0054 40.2715C13.3336 40.2715 18.606 40.2916 18.9922 40.2715C19.3889 40.2677 19.6633 39.9696 19.2855 39.5846Z" fill="white" fill-opacity="0.4"/>
    <path d="M12.5582 2.19292C12.5508 2.20083 12.2665 3.05729 11.9271 4.09628C11.5877 5.13527 11.2666 6.11834 11.2133 6.2808L11.1162 6.57622L8.78393 6.58075L6.45161 6.58594L8.33388 7.94965L10.2161 9.314L10.1543 9.50965C10.0766 9.75374 8.79959 13.6667 8.78458 13.7064C8.76928 13.7468 8.65488 13.8275 10.6994 12.3504C11.7062 11.6231 12.5396 11.0244 12.5517 11.0198C12.5639 11.0151 13.4182 11.6217 14.4503 12.3679C15.4823 13.1142 16.3297 13.7221 16.3332 13.7187C16.3366 13.7153 16.0185 12.7296 15.6265 11.5283C15.2345 10.3271 14.918 9.33314 14.9231 9.31983C14.9283 9.30652 15.7743 8.68577 16.8028 7.94058L18.6727 6.58594L16.3384 6.58075L14.0048 6.57622L13.9097 6.2808C13.2399 4.21093 12.569 2.1815 12.5582 2.19292ZM29.5143 2.29463L28.7913 4.50831L28.0684 6.72134L25.7419 6.73105L23.4161 6.74077L25.2723 8.08634C26.2934 8.82646 27.1386 9.43782 27.15 9.44486C27.1635 9.45315 26.9233 10.2167 26.4688 11.6093C26.0826 12.7926 25.7606 13.783 25.7536 13.8107C25.7467 13.8383 25.746 13.8612 25.7517 13.8612C25.7574 13.8612 26.5801 13.2703 27.5799 12.548C28.5797 11.8258 29.4246 11.2159 29.4576 11.1927L29.5175 11.1506L31.3926 12.5072C32.424 13.2533 33.2717 13.8599 33.2769 13.8547C33.282 13.8496 32.9648 12.8594 32.5715 11.654C32.1782 10.4486 31.8594 9.45934 31.8635 9.45588C31.8677 9.45241 32.7128 8.84026 33.7412 8.09541L35.6111 6.74077L33.284 6.73105L30.9576 6.72134L30.2652 4.59965C29.8844 3.43279 29.5596 2.43711 29.5436 2.38662L29.5143 2.29463ZM10.4741 14.9373C10.4141 14.9367 10.3671 14.9731 10.3145 15.0396C9.98403 15.4575 10.6138 17.0007 11.6223 18.2445C12.2013 18.9585 13.1143 19.7672 13.8166 20.1887C15.1703 21.0011 16.8152 21.2432 19.3546 21.0037L19.6314 20.9778L19.6203 31.0958L19.6092 41.2137L19.5187 41.4781C19.4087 41.7994 19.2524 42.0503 19.0146 42.2853C18.7847 42.5125 18.6009 42.6366 18.0748 42.9215C17.5753 43.1919 17.3329 43.3658 17.2405 43.5201C17.0971 43.7592 17.1946 43.8055 18.5854 44.1614C19.5322 44.4038 20.258 44.634 20.6272 44.8093C20.9482 44.9616 21.1629 45.1518 21.7677 45.8173C22.0268 46.1025 22.3606 46.4368 22.5095 46.5597C23.0783 47.0295 23.7442 47.3617 24.3501 47.4784C24.7188 47.5494 25.3886 47.5207 25.8253 47.4155C26.4769 47.2586 27.4177 46.8197 28.0287 46.3874C28.6703 45.9334 29.1401 45.3404 29.0369 45.1151C28.9423 44.9087 28.8446 44.8852 28.0397 44.8741C27.1837 44.8622 26.8755 44.8011 26.304 44.5294C25.9228 44.3481 25.6499 44.118 25.4905 43.8427C25.1786 43.3039 24.5895 42.4723 24.352 42.236L24.0844 41.9704V41.3388V40.7078L26.8016 40.6968L29.5182 40.6851L29.6074 40.5964C29.8137 40.3911 29.6309 40.0479 29.287 39.9952C28.6037 39.8904 28.0716 39.5194 27.8111 38.9664C27.6635 38.6531 27.6591 38.2119 27.7994 37.799C27.9062 37.4845 28.3308 36.6267 28.4618 36.4612L28.5451 36.3556H31.0963H33.6468L33.7725 36.6031C33.976 37.0041 34.1894 37.6865 34.2102 38.0024C34.2554 38.6903 33.7802 39.6525 33.2059 40.0373C33.0908 40.1144 32.9777 40.2131 32.9545 40.2562C32.8846 40.386 32.9053 40.5022 33.0046 40.5419C33.0565 40.5627 34.4663 40.5795 36.2364 40.5808L39.3757 40.5834L39.4955 40.4648C39.694 40.2674 39.6638 40.1823 39.2363 39.738C38.8339 39.3197 38.4556 38.7929 38.2893 38.419C38.1387 38.0802 37.7307 36.9435 37.0818 35.0554C36.7629 34.1275 36.0444 32.0601 35.4854 30.4615C32.798 22.775 32.9643 23.2139 32.7838 23.31C32.7417 23.3324 32.6623 23.4189 32.608 23.5017C32.5536 23.5846 32.0409 24.7223 31.4688 26.0303C28.4935 32.833 27.185 35.7507 26.3535 37.4329C25.8886 38.3735 25.6415 38.7494 25.1883 39.2067C24.861 39.537 24.2648 39.9738 24.141 39.9738C24.0938 39.9738 24.0844 39.0274 24.0844 33.9514V27.9291L24.4419 27.9544C25.2413 28.0112 25.7091 28.2852 25.8754 28.7946C25.901 28.8729 25.9422 29.1176 25.9666 29.3382C26.0529 30.1169 26.2431 30.483 26.6127 30.582C26.8354 30.6416 26.9604 30.5715 27.0686 30.3261C27.2361 29.9465 27.2523 29.6117 27.2523 26.4572C27.2523 23.6526 27.2468 23.4346 27.1774 23.2368C27.0273 22.8086 26.7121 22.6977 26.4115 22.9679C26.1264 23.2241 26.0529 23.4242 26.0083 24.0589C25.9857 24.3804 25.9506 24.5658 25.8839 24.719C25.6795 25.1889 25.163 25.4606 24.3807 25.5107L24.1254 25.5275V23.3242V21.1203L24.2583 21.097C24.6827 21.022 26.5457 20.8978 27.2927 20.8948C28.2177 20.8911 28.4794 20.9236 29.3977 21.152C30.2119 21.3546 30.6952 21.5439 31.7886 22.0907C32.9117 22.6524 33.1247 22.7234 33.1505 22.5423C33.1717 22.3939 32.9999 21.853 32.3996 20.1751C31.7076 18.2413 31.3085 17.2035 31.1953 17.0453C31.0273 16.8107 30.8182 16.836 30.3382 17.1477C29.7238 17.5466 29.1423 17.779 28.3914 17.9258C27.9929 18.0036 28.0753 18.0024 22.6541 17.9951C21.0694 17.993 19.1202 17.9933 18.3223 17.9957C17.1412 17.9993 16.7686 17.9864 16.3195 17.9271C15.6953 17.8447 14.9775 17.6949 14.5154 17.55C13.6239 17.2706 12.0252 16.247 10.9717 15.2813C10.7108 15.0422 10.5741 14.9383 10.4741 14.9373ZM12.7269 22.955C12.673 22.9488 12.6137 22.9813 12.5472 23.0515C12.4074 23.1987 12.3738 23.266 11.8548 24.4424C9.19813 30.4641 7.64088 33.9741 7.17781 34.9841C6.09161 37.3533 5.60653 38.2619 5.1744 38.7377C4.5906 39.3806 3.92865 39.7571 3.23156 39.8429C3.0647 39.8634 2.99699 39.9219 2.9782 40.0612C2.95933 40.2012 3.01511 40.2963 3.13712 40.3314C3.18866 40.3462 4.44795 40.357 6.23472 40.358C9.13448 40.3597 9.24954 40.3579 9.35707 40.3094C9.41848 40.2816 9.48957 40.2283 9.51469 40.1902C9.60486 40.0533 9.51332 39.8108 9.34731 39.747C9.31494 39.7346 9.1552 39.6948 8.99234 39.6583C8.82249 39.6202 8.63103 39.5574 8.54294 39.5106C8.34411 39.4049 8.03667 39.1407 7.87015 38.932C7.40289 38.3466 7.44579 37.8112 8.05837 36.5875L8.32867 36.0485L10.9391 36.055L13.5502 36.0621L13.7449 36.5545C14.0085 37.2194 14.0602 37.4469 14.0432 37.867C14.0321 38.1402 14.0168 38.2322 13.9449 38.4449C13.7433 39.0402 13.3528 39.5677 12.9445 39.7969C12.7177 39.9242 12.6789 40.1003 12.8526 40.2135C12.9089 40.2502 13.2664 40.2555 16.0186 40.2614L19.1208 40.2679L19.2491 40.2057C19.3783 40.1424 19.4555 40.0409 19.4555 39.9356C19.4555 39.8193 19.37 39.687 19.1377 39.4445C18.7302 39.019 18.4005 38.5795 18.2181 38.2181C18.114 38.0119 17.8847 37.3733 16.9676 34.7334C16.1176 32.287 15.8918 31.6416 14.4965 27.6764C13.8268 25.7731 13.1937 23.9746 13.0903 23.6793C12.987 23.3839 12.8899 23.1184 12.8741 23.0891C12.8295 23.0062 12.7809 22.9611 12.7269 22.955ZM11.2107 29.7139C11.2213 29.7143 12.6591 33.4009 12.9673 34.2183C12.9839 34.2623 12.8805 34.265 11.0381 34.265C9.1974 34.265 9.09278 34.2624 9.10502 34.2183C9.12815 34.1351 11.1952 29.7133 11.2107 29.7139ZM31.3594 30.0547C31.3718 30.0547 31.7679 31.0638 32.2393 32.2969C32.7107 33.5299 33.1026 34.5544 33.1101 34.5734C33.1176 34.5924 32.2466 34.6077 31.1751 34.6077C29.9702 34.6077 29.2323 34.5932 29.2407 34.5695C29.2954 34.4153 31.3418 30.0547 31.3594 30.0547Z" fill="#BBA06C"/>
</svg>
