<svg width="101" height="50" viewBox="0 0 101 50" fill="none" xmlns="http://www.w3.org/2000/svg">
    <g clip-path="url(#clip0_683_8463)">
        <path d="M24.5544 12.1621C24.5061 12.1135 24.4539 12.0688 24.3984 12.0284C24.4537 12.069 24.5058 12.1137 24.5544 12.1621Z" fill="white"/>
        <path d="M22.6809 12.1547C22.6352 12.2003 22.593 12.2493 22.5547 12.3013C22.5933 12.2496 22.6355 12.2006 22.6809 12.1547Z" fill="white"/>
        <path d="M67.883 12.4666C67.9122 12.467 67.9411 12.4726 67.9684 12.4833C67.9992 12.4958 68.0271 12.5148 68.05 12.539L68.5253 13.0402C68.3212 13.3094 68.0515 13.5216 67.7419 13.6566C67.3891 13.8028 67.0097 13.8736 66.628 13.8645C66.2658 13.8705 65.9063 13.8023 65.5716 13.664C65.2706 13.5371 65.0003 13.3472 64.7788 13.1071C64.5577 12.8645 64.3878 12.5797 64.2794 12.2698C64.1607 11.9317 64.1017 11.5755 64.1049 11.2171C64.1 10.8541 64.163 10.4933 64.2906 10.1533C64.4088 9.84204 64.5888 9.55786 64.8197 9.31791C65.051 9.08055 65.3292 8.89403 65.6366 8.77023C65.9694 8.63721 66.3252 8.57097 66.6836 8.5753C66.8706 8.57395 67.0572 8.59136 67.2406 8.62728C67.405 8.65913 67.5659 8.70637 67.7214 8.76837C68.0003 8.88111 68.253 9.04982 68.4641 9.26407L68.0593 9.80803C68.0324 9.84216 68.0012 9.87272 67.9665 9.899C67.9228 9.9286 67.8706 9.94296 67.818 9.93984C67.7761 9.9402 67.7348 9.93066 67.6973 9.912C67.6558 9.89006 67.6155 9.86589 67.5766 9.83959L67.4374 9.75048C67.3785 9.71495 67.3163 9.68511 67.2517 9.66136C67.1722 9.6315 67.0902 9.60852 67.0067 9.59267C66.8983 9.57258 66.7883 9.56325 66.6781 9.56483C66.4904 9.56223 66.3044 9.59957 66.1323 9.67436C65.9728 9.74957 65.832 9.85927 65.7201 9.99554C65.5943 10.1481 65.5003 10.3242 65.4435 10.5135C65.3748 10.741 65.3417 10.9777 65.3451 11.2153C65.3409 11.4554 65.3773 11.6946 65.4528 11.9226C65.5165 12.1134 65.6168 12.29 65.748 12.4424C65.8676 12.5799 66.0159 12.6895 66.1824 12.7636C66.3503 12.8373 66.5319 12.8746 66.7152 12.8732C66.8151 12.8734 66.9149 12.8678 67.0141 12.8564C67.0998 12.8466 67.1843 12.8285 67.2666 12.8026C67.3439 12.7781 67.4181 12.7444 67.4875 12.7024C67.5623 12.6565 67.6325 12.6037 67.6973 12.5446C67.7255 12.5207 67.7567 12.5008 67.7901 12.4851C67.8195 12.4729 67.8511 12.4666 67.883 12.4666ZM73.2836 13.8051H72.1975C72.1115 13.8117 72.0252 13.794 71.9488 13.754C71.8723 13.7139 71.8086 13.6532 71.765 13.5786L70.9035 12.0674C70.8711 12.0051 70.8206 11.9541 70.7586 11.921C70.6967 11.8879 70.6262 11.8742 70.5564 11.8818H70.25V13.8051H69.0507V8.63099H70.7327C71.0559 8.62439 71.3783 8.66313 71.6907 8.7461C71.9256 8.80838 72.1453 8.91764 72.3368 9.06728C72.4999 9.19517 72.6277 9.36259 72.7081 9.55369C72.7851 9.74801 72.8235 9.95547 72.8213 10.1645C72.8225 10.3253 72.7999 10.4855 72.7545 10.6398C72.7103 10.7873 72.6433 10.927 72.5558 11.0538C72.4619 11.1841 72.3478 11.2988 72.218 11.3935C72.0823 11.4966 71.9321 11.5792 71.7724 11.6386C71.8519 11.6795 71.9261 11.73 71.9933 11.7889C72.0646 11.8521 72.1271 11.9245 72.179 12.0043L73.2836 13.8051ZM70.7327 11.063C70.8745 11.0668 71.0158 11.046 71.1505 11.0018C71.2561 10.9658 71.3525 10.9068 71.4326 10.8291C71.5053 10.7568 71.56 10.6684 71.5923 10.5711C71.6263 10.4687 71.6433 10.3615 71.6424 10.2536C71.6476 10.1538 71.6303 10.054 71.5918 9.9618C71.5532 9.86957 71.4944 9.78719 71.4197 9.72077C71.2199 9.57958 70.9765 9.5138 70.7327 9.53512H70.25V11.0686L70.7327 11.063ZM75.931 11.8372V13.8051H74.7317V11.8372L72.8566 8.63099H73.9148C74.003 8.62588 74.0903 8.65147 74.1617 8.7034C74.224 8.75439 74.2752 8.81756 74.3121 8.88905L75.0343 10.3965C75.0962 10.5203 75.1519 10.6311 75.2014 10.7289C75.2509 10.8266 75.2948 10.9281 75.3332 11.0333C75.3691 10.9318 75.4099 10.8297 75.4557 10.727C75.5015 10.6243 75.5554 10.5147 75.6173 10.3984L76.3413 8.89276C76.3591 8.86019 76.3796 8.82914 76.4026 8.79994C76.4267 8.76863 76.4548 8.74055 76.4861 8.71639C76.5193 8.69047 76.5562 8.66981 76.5956 8.65513C76.6397 8.63952 76.6863 8.63197 76.733 8.63285H77.7875L75.931 11.8372ZM80.0265 8.63099C80.3445 8.62442 80.6616 8.66828 80.9659 8.76095C81.2035 8.834 81.4235 8.95535 81.612 9.1174C81.7766 9.26427 81.9038 9.44818 81.9833 9.65394C82.0651 9.86718 82.106 10.0939 82.104 10.3223C82.1067 10.565 82.0646 10.806 81.9796 11.0333C81.9017 11.2458 81.7744 11.4367 81.6083 11.5903C81.4198 11.7543 81.1991 11.8769 80.9603 11.9505C80.6597 12.0426 80.3464 12.0865 80.0321 12.0804H79.4027V13.8088H78.2034V8.63099H80.0265ZM80.0265 11.1707C80.1437 11.1902 80.2638 11.1821 80.3773 11.1468C80.4908 11.1116 80.5944 11.0503 80.6799 10.9679C80.7655 10.8854 80.8305 10.7841 80.8698 10.672C80.9092 10.5599 80.9217 10.4401 80.9065 10.3223C80.9078 10.2123 80.8896 10.1029 80.8527 9.99925C80.8187 9.90444 80.7635 9.81869 80.6912 9.74862C80.6132 9.67533 80.52 9.62017 80.4182 9.5871C80.2917 9.54655 80.1594 9.52711 80.0265 9.52955H79.4027V11.1707H80.0265ZM86.4371 9.58339H84.9816V13.8051H83.7823V9.58339H82.3268V8.63099H86.439L86.4371 9.58339ZM92.0011 11.2153C92.0066 11.5717 91.9436 11.9259 91.8155 12.2586C91.6923 12.5753 91.505 12.863 91.2654 13.1039C91.0258 13.3448 90.739 13.5336 90.4231 13.6585C89.7146 13.9284 88.9316 13.9284 88.2231 13.6585C87.9042 13.5344 87.6147 13.3454 87.3727 13.1034C87.1308 12.8615 86.9418 12.5719 86.8177 12.2531C86.5595 11.5808 86.5595 10.8367 86.8177 10.1645C86.9416 9.85113 87.1279 9.56625 87.3654 9.32719C87.6082 9.0859 87.8974 8.89642 88.2157 8.77023C88.566 8.63178 88.9399 8.56304 89.3166 8.56787C89.6928 8.56296 90.0663 8.63236 90.4156 8.77209C90.7324 8.8989 91.0204 9.08833 91.2622 9.32905C91.4988 9.56844 91.6845 9.85326 91.808 10.1663C91.9397 10.5002 92.0053 10.8564 92.0011 11.2153ZM90.7721 11.2153C90.7749 10.9812 90.7411 10.7482 90.6718 10.5246C90.613 10.3337 90.5157 10.1568 90.3859 10.0048C90.2609 9.86222 90.1046 9.7504 89.9292 9.67807C89.734 9.59955 89.5251 9.56104 89.3147 9.56483C89.1025 9.56094 88.8917 9.59945 88.6946 9.67807C88.5186 9.75004 88.3616 9.86189 88.2361 10.0048C88.1063 10.1568 88.009 10.3337 87.9502 10.5246C87.8176 10.9768 87.8176 11.4575 87.9502 11.9096C88.0089 12.1006 88.1062 12.2775 88.2361 12.4294C88.3614 12.5722 88.5184 12.6835 88.6946 12.7543C88.892 12.8318 89.1027 12.8696 89.3147 12.8657C89.5249 12.8695 89.7337 12.8317 89.9292 12.7543C90.1038 12.6858 90.2601 12.5777 90.3859 12.4387C90.5157 12.2868 90.613 12.1099 90.6718 11.9189C90.7423 11.6911 90.7761 11.4536 90.7721 11.2153ZM56.9313 19.7479H58.7711V21.9312C58.5159 22.1207 58.2294 22.264 57.9246 22.3544C57.6193 22.443 57.303 22.4874 56.9852 22.4863C56.5887 22.4913 56.1948 22.4234 55.823 22.2858C55.4901 22.1614 55.1853 21.972 54.9263 21.7288C54.6776 21.4933 54.4815 21.208 54.3507 20.8915C54.2137 20.5576 54.1449 20.1997 54.1484 19.8388C54.1423 19.4757 54.2053 19.1147 54.334 18.7751C54.4586 18.4604 54.6484 18.1757 54.891 17.9396C55.1378 17.6993 55.4317 17.5129 55.7543 17.3919C56.1159 17.2576 56.4992 17.1915 56.8849 17.197C57.0885 17.1962 57.2917 17.2142 57.492 17.2508C57.6705 17.2831 57.8458 17.3316 58.0155 17.3957C58.1687 17.4543 58.3155 17.5283 58.4537 17.6166C58.5804 17.6973 58.6991 17.7899 58.8083 17.8932L58.4611 18.4223C58.4378 18.4606 58.4071 18.4938 58.3707 18.5199C58.3344 18.5461 58.2931 18.5647 58.2494 18.5746C58.2012 18.5829 58.1517 18.5817 58.1039 18.5708C58.0561 18.56 58.0109 18.5398 57.971 18.5114C57.8769 18.4545 57.7878 18.4056 57.7036 18.3648C57.6206 18.3235 57.5343 18.2894 57.4456 18.2627C57.3551 18.2358 57.2626 18.2166 57.1689 18.2051C57.0605 18.1924 56.9514 18.1862 56.8422 18.1865C56.6337 18.1831 56.4269 18.2236 56.2351 18.3054C56.0587 18.3819 55.9014 18.4967 55.7747 18.6414C55.6434 18.7935 55.5437 18.9702 55.4814 19.1612C55.4106 19.3794 55.3762 19.6077 55.3792 19.837C55.3749 20.0855 55.4133 20.3329 55.4925 20.5685C55.5605 20.7691 55.6699 20.9531 55.8137 21.1087C55.9526 21.2561 56.1226 21.3709 56.3112 21.4447C56.5154 21.5236 56.7328 21.5627 56.9517 21.5598C57.0835 21.5611 57.215 21.5468 57.3435 21.5171C57.4609 21.489 57.5758 21.4511 57.6869 21.4039V20.6186H57.1801C57.1466 20.6216 57.1129 20.6176 57.0809 20.6071C57.049 20.5966 57.0196 20.5796 56.9944 20.5573C56.9737 20.5379 56.9574 20.5142 56.9465 20.488C56.9356 20.4617 56.9304 20.4335 56.9313 20.4051V19.7479ZM64.1402 22.4287H63.2119C63.1221 22.4332 63.0333 22.4077 62.9595 22.3563C62.8959 22.308 62.846 22.244 62.8146 22.1706L62.5083 21.2684H60.5404L60.2359 22.1706C60.2068 22.2443 60.158 22.3085 60.0948 22.3563C60.023 22.411 59.9344 22.4392 59.8442 22.4361H58.9159L60.9191 17.262H62.1482L64.1402 22.4287ZM62.2336 20.4515L61.7546 19.035C61.7187 18.9446 61.6809 18.8388 61.6413 18.7175C61.6017 18.5962 61.5615 18.4644 61.5206 18.3221C61.4848 18.4669 61.447 18.6005 61.4074 18.7231C61.3678 18.8456 61.33 18.952 61.2941 19.0424L60.8189 20.4515H62.2336ZM70.3614 17.2546V22.4287H69.3032V19.4583V19.2336C69.3032 19.1538 69.3125 19.0721 69.3236 18.9886L67.9498 21.649C67.9111 21.726 67.8512 21.7904 67.7771 21.8346C67.7021 21.8777 67.6167 21.8995 67.5302 21.8977H67.3668C67.2803 21.8995 67.195 21.8777 67.1199 21.8346C67.0459 21.7904 66.986 21.726 66.9473 21.649L65.5734 18.983C65.5809 19.0684 65.5871 19.1519 65.592 19.2336C65.597 19.3153 65.597 19.3902 65.592 19.4583V22.4287H64.5338V17.2546H65.5864C65.6219 17.2561 65.657 17.263 65.6904 17.275C65.7219 17.2873 65.7504 17.3063 65.774 17.3307C65.8031 17.3615 65.8275 17.3966 65.8464 17.4346L67.1775 20.0579C67.2245 20.1483 67.2703 20.2417 67.3149 20.3383C67.3594 20.4348 67.4015 20.5344 67.4411 20.6372C67.482 20.5332 67.524 20.4317 67.5674 20.3327C67.6107 20.2337 67.6571 20.139 67.7066 20.0486L69.034 17.4346C69.0528 17.3966 69.0772 17.3615 69.1064 17.3307C69.13 17.3064 69.1585 17.2874 69.19 17.275C69.2234 17.263 69.2584 17.2561 69.2939 17.2546H69.4313H70.3614ZM73.2688 17.2546C73.5762 17.2491 73.8832 17.2828 74.1822 17.3548C74.4035 17.4078 74.6123 17.5037 74.7967 17.637C74.9496 17.7501 75.0695 17.902 75.1438 18.077C75.2181 18.261 75.2547 18.4579 75.2515 18.6562C75.2519 18.7701 75.235 18.8834 75.2014 18.9923C75.1678 19.1016 75.1149 19.204 75.0454 19.2949C74.9684 19.3945 74.8763 19.4816 74.7725 19.5529C74.6483 19.6377 74.5135 19.7057 74.3715 19.7553C74.6583 19.8089 74.922 19.9488 75.1271 20.1563C75.2957 20.3561 75.3831 20.6118 75.3722 20.8729C75.3738 21.0846 75.3301 21.2941 75.2441 21.4874C75.1586 21.6782 75.0318 21.8475 74.8728 21.9831C74.6934 22.1321 74.4865 22.2444 74.2638 22.3136C73.9959 22.3968 73.7164 22.4369 73.4358 22.4324H71.3658V17.2546H73.2688ZM72.5651 18.1531V19.4323H73.1908C73.3108 19.4335 73.4307 19.4242 73.5491 19.4044C73.6451 19.3891 73.7372 19.355 73.8201 19.3042C73.8946 19.257 73.9539 19.1893 73.9909 19.1092C74.0324 19.0106 74.052 18.9042 74.0485 18.7973C74.0513 18.6933 74.0356 18.5896 74.0021 18.491C73.9739 18.4133 73.9243 18.3451 73.8591 18.2942C73.787 18.2411 73.7039 18.205 73.6159 18.1884C73.501 18.1657 73.384 18.1551 73.2669 18.1568L72.5651 18.1531ZM73.4098 21.5227C73.5419 21.5267 73.6735 21.5059 73.7979 21.4615C73.8875 21.4285 73.9682 21.3751 74.0336 21.3055C74.0894 21.2435 74.1295 21.169 74.1506 21.0883C74.1718 21.0083 74.1824 20.9259 74.1822 20.8432C74.1834 20.7564 74.1708 20.6699 74.145 20.587C74.1199 20.5147 74.0756 20.4505 74.0169 20.4014C73.9468 20.3443 73.8651 20.3031 73.7774 20.2807C73.6561 20.2499 73.5313 20.2355 73.4061 20.238H72.5688V21.5264L73.4098 21.5227ZM79.2393 21.4689V22.4268H76.1167V17.2546H77.316V21.4689H79.2393ZM81.0569 22.4287H79.8501V17.2546H81.0569V22.4287ZM86.5745 17.2546V22.4287H85.9563C85.8766 22.4311 85.7973 22.4159 85.7242 22.3841C85.652 22.3467 85.5887 22.2941 85.5385 22.2301L83.0991 19.1445C83.109 19.2373 83.1158 19.3264 83.1195 19.4118C83.1232 19.4972 83.1232 19.5783 83.1195 19.6551V22.4287H82.0576V17.2546H82.6906C82.7345 17.2517 82.7785 17.2517 82.8224 17.2546C82.8557 17.2583 82.8883 17.2671 82.919 17.2806C82.9489 17.2948 82.9765 17.3136 83.0007 17.3362C83.0326 17.3663 83.0624 17.3985 83.0898 17.4328L85.5515 20.5406C85.5392 20.4416 85.5311 20.3451 85.5274 20.251C85.5237 20.1569 85.5237 20.0691 85.5274 19.9874V17.2546H86.5745ZM90.0629 19.7479H91.8971V21.9312C91.6419 22.1207 91.3554 22.264 91.0506 22.3544C90.7453 22.443 90.429 22.4874 90.1112 22.4863C89.7148 22.4913 89.3208 22.4233 88.949 22.2858C88.6161 22.1614 88.3113 21.9721 88.0523 21.7288C87.8036 21.4934 87.6075 21.208 87.4768 20.8915C87.3398 20.5576 87.271 20.1997 87.2744 19.8388C87.2682 19.4757 87.3312 19.1147 87.46 18.7751C87.5845 18.4603 87.7744 18.1756 88.017 17.9396C88.2637 17.6993 88.5577 17.5128 88.8803 17.3919C89.2419 17.2576 89.6252 17.1915 90.0109 17.197C90.2145 17.1961 90.4177 17.2142 90.618 17.2508C90.7965 17.2831 90.9718 17.3316 91.1415 17.3957C91.2947 17.4542 91.4415 17.5282 91.5797 17.6166C91.7064 17.6973 91.8252 17.7899 91.9343 17.8932L91.5871 18.4223C91.5638 18.4606 91.5331 18.4938 91.4967 18.5199C91.4604 18.5461 91.4191 18.5647 91.3755 18.5746C91.3272 18.5829 91.2777 18.5817 91.2299 18.5708C91.1821 18.56 91.1369 18.5398 91.097 18.5114C91.0029 18.4545 90.9138 18.4056 90.8296 18.3648C90.7466 18.3236 90.6603 18.2894 90.5716 18.2627C90.4811 18.2358 90.3886 18.2166 90.295 18.2051C90.1865 18.1924 90.0774 18.1862 89.9682 18.1865C89.7598 18.1831 89.5529 18.2236 89.3611 18.3054C89.1847 18.3819 89.0274 18.4967 88.9007 18.6414C88.7695 18.7936 88.6699 18.9703 88.6074 19.1612C88.5367 19.3794 88.5022 19.6077 88.5053 19.837C88.501 20.0855 88.5393 20.3329 88.6185 20.5685C88.6865 20.7691 88.796 20.9531 88.9397 21.1087C89.0787 21.2561 89.2486 21.3708 89.4372 21.4447C89.6414 21.5236 89.8589 21.5627 90.0778 21.5598C90.2096 21.5611 90.341 21.5468 90.4695 21.5171C90.5869 21.4889 90.7018 21.4511 90.8129 21.4039V20.6186H90.3024C90.2689 20.6216 90.2352 20.6176 90.2032 20.6071C90.1713 20.5966 90.1419 20.5796 90.1167 20.5573C90.096 20.5379 90.0797 20.5142 90.0688 20.488C90.0579 20.4617 90.0527 20.4335 90.0536 20.4051L90.0629 19.7479ZM45.7067 26.8008V28.1115H47.4742V29.0398H45.7067V31.0541H44.5V25.8781H47.8306V26.8064L45.7067 26.8008ZM53.5543 28.4643C53.5598 28.8207 53.4967 29.1749 53.3686 29.5076C53.2454 29.8243 53.0582 30.112 52.8186 30.3529C52.579 30.5938 52.2922 30.7826 51.9762 30.9075C51.2678 31.1774 50.4847 31.1774 49.7763 30.9075C49.4593 30.7831 49.1715 30.5946 48.9309 30.3537C48.6904 30.1128 48.5022 29.8247 48.3783 29.5076C48.1201 28.8354 48.1201 28.0913 48.3783 27.4191C48.5022 27.1057 48.6885 26.8208 48.926 26.5818C49.1688 26.3405 49.458 26.151 49.7763 26.0248C50.1266 25.8863 50.5005 25.8176 50.8772 25.8224C51.2534 25.8175 51.6269 25.8869 51.9762 26.0267C52.293 26.1535 52.581 26.3429 52.8228 26.5836C53.0594 26.823 53.2451 27.1078 53.3686 27.4209C53.4971 27.7535 53.5601 28.1078 53.5543 28.4643ZM52.3253 28.4643C52.3281 28.2302 52.2943 27.9972 52.225 27.7736C52.1662 27.5827 52.0689 27.4058 51.9391 27.2538C51.814 27.1112 51.6577 26.9994 51.4824 26.9271C51.2872 26.8485 51.0782 26.81 50.8679 26.8138C50.6557 26.8099 50.4449 26.8484 50.2478 26.9271C50.0717 26.999 49.9148 27.1109 49.7892 27.2538C49.6594 27.4058 49.5621 27.5827 49.5033 27.7736C49.3708 28.2258 49.3708 28.7065 49.5033 29.1586C49.5621 29.3496 49.6594 29.5265 49.7892 29.6784C49.9145 29.8212 50.0716 29.9325 50.2478 30.0033C50.4452 30.0808 50.6559 30.1186 50.8679 30.1147C51.0781 30.1185 51.2869 30.0807 51.4824 30.0033C51.6579 29.9321 51.8142 29.8208 51.9391 29.6784C52.0689 29.5265 52.1662 29.3496 52.225 29.1586C52.2945 28.9338 52.3283 28.6995 52.3253 28.4643ZM56.4208 30.1036C56.5682 30.1057 56.7146 30.0786 56.8515 30.0238C56.9746 29.9731 57.0844 29.895 57.1727 29.7954C57.2648 29.6871 57.3331 29.5606 57.3732 29.4241C57.4213 29.2659 57.4444 29.1012 57.4419 28.9358V25.8781H58.643V28.9433C58.6467 29.2418 58.5944 29.5384 58.4889 29.8177C58.3913 30.0745 58.2407 30.3079 58.0471 30.5027C57.8478 30.6994 57.6093 30.8518 57.3472 30.9502C56.7465 31.1625 56.0913 31.1625 55.4906 30.9502C55.2285 30.8518 54.99 30.6994 54.7907 30.5027C54.5972 30.3081 54.4472 30.0746 54.3507 29.8177C54.2464 29.5381 54.1948 29.2416 54.1985 28.9433V25.8781H55.3978V28.9395C55.3951 29.1049 55.4183 29.2696 55.4665 29.4278C55.507 29.5641 55.5752 29.6905 55.667 29.7991C55.7548 29.8997 55.8648 29.9785 55.9882 30.0293C56.126 30.0825 56.2731 30.1078 56.4208 30.1036ZM64.0975 25.8781V31.0523H63.4719C63.3922 31.0547 63.3129 31.0395 63.2398 31.0077C63.1676 30.9702 63.1043 30.9177 63.0541 30.8536L60.6147 27.7681C60.6239 27.8609 60.6314 27.9537 60.6351 28.0354C60.6388 28.1171 60.6351 28.2025 60.6351 28.2786V31.0523H59.5769V25.8781H60.2081C60.252 25.8753 60.296 25.8753 60.3399 25.8781C60.3732 25.882 60.4057 25.8907 60.4364 25.9041C60.4663 25.9184 60.4939 25.9372 60.5181 25.9598C60.55 25.9899 60.5798 26.0222 60.6072 26.0564L63.0671 29.1642C63.0548 29.0652 63.0467 28.9686 63.043 28.8746C63.0393 28.7805 63.0393 28.6926 63.043 28.6109V25.8781H64.0975ZM69.7933 28.4643C69.7996 28.8184 69.7366 29.1703 69.6077 29.5002C69.4841 29.8084 69.2983 30.0877 69.0619 30.3208C68.8196 30.5569 68.5315 30.7408 68.2153 30.8611C67.8638 30.9911 67.491 31.0541 67.1162 31.0467H65.0982V25.8781H67.1088C67.4842 25.8731 67.8571 25.9392 68.2079 26.0731C68.5236 26.1942 68.8115 26.378 69.0544 26.6133C69.2907 26.8458 69.4765 27.1245 69.6003 27.432C69.7314 27.7602 69.797 28.1109 69.7933 28.4643ZM68.5643 28.4643C68.5671 28.2296 68.5333 27.996 68.4641 27.7718C68.4051 27.5797 68.3079 27.4016 68.1782 27.2483C68.0533 27.1045 67.897 26.9915 67.7214 26.9178C67.5266 26.8381 67.3175 26.7989 67.1069 26.8027H66.3049V30.1296H67.1069C67.3175 30.1334 67.5266 30.0942 67.7214 30.0145C67.897 29.9408 68.0533 29.8278 68.1782 29.684C68.3079 29.5306 68.4051 29.3525 68.4641 29.1605C68.5334 28.935 68.5673 28.7001 68.5643 28.4643ZM74.9675 31.0523H74.0392C73.9493 31.0569 73.8605 31.0314 73.7867 30.9799C73.7226 30.9318 73.672 30.8678 73.6401 30.7942L73.3319 29.8901H71.364L71.0576 30.7924C71.029 30.8658 70.9808 30.93 70.9184 30.978C70.8465 31.0327 70.758 31.0609 70.6678 31.0578H69.7395L71.7427 25.8837H72.9606L74.9675 31.0523ZM73.0608 29.0751L72.5893 27.6623C72.5534 27.5719 72.5156 27.4661 72.476 27.3448C72.4364 27.2235 72.3962 27.0917 72.3553 26.9494C72.3194 27.0942 72.2817 27.2278 72.2421 27.3504C72.2025 27.4729 72.1647 27.5793 72.1288 27.6697L71.6536 29.0788L73.0608 29.0751ZM78.5896 26.8305H77.134V31.0523H75.931V26.8305H74.4755V25.8781H78.5877L78.5896 26.8305ZM80.4034 31.0523H79.1966V25.8781H80.4034V31.0523ZM86.4817 28.4643C86.4871 28.8207 86.4241 29.1749 86.296 29.5076C86.1728 29.8243 85.9855 30.112 85.7459 30.3529C85.5063 30.5938 85.2196 30.7826 84.9036 30.9075C84.1951 31.1774 83.4121 31.1774 82.7036 30.9075C82.3867 30.7831 82.0989 30.5946 81.8583 30.3537C81.6177 30.1128 81.4296 29.8247 81.3057 29.5076C81.0475 28.8354 81.0475 28.0913 81.3057 27.4191C81.4296 27.1057 81.6159 26.8209 81.8533 26.5818C82.0962 26.3405 82.3854 26.151 82.7036 26.0248C83.0539 25.8863 83.4279 25.8176 83.8045 25.8224C84.1808 25.8175 84.5543 25.8869 84.9036 26.0267C85.2204 26.1534 85.5084 26.3429 85.7502 26.5836C85.9868 26.823 86.1724 27.1078 86.296 27.4209C86.4245 27.7535 86.4875 28.1078 86.4817 28.4643ZM85.2526 28.4643C85.2555 28.2302 85.2217 27.9972 85.1524 27.7736C85.0937 27.5826 84.9964 27.4057 84.8665 27.2538C84.7414 27.1112 84.5851 26.9994 84.4098 26.9271C84.2146 26.8486 84.0056 26.8101 83.7953 26.8138C83.5823 26.807 83.3702 26.843 83.1715 26.9196C82.9954 26.9915 82.8384 27.1034 82.7129 27.2464C82.5831 27.3984 82.4858 27.5753 82.427 27.7662C82.2945 28.2184 82.2945 28.699 82.427 29.1512C82.4858 29.3422 82.5831 29.5191 82.7129 29.671C82.8382 29.8138 82.9952 29.9251 83.1715 29.9959C83.3688 30.0734 83.5795 30.1112 83.7915 30.1073C84.0017 30.111 84.2106 30.0732 84.4061 29.9959C84.5815 29.9247 84.7379 29.8135 84.8628 29.671C84.9927 29.5191 85.09 29.3422 85.1487 29.1512C85.2192 28.9291 85.2549 28.6973 85.2545 28.4643H85.2526ZM91.7115 25.8781V31.0523H91.0803C91.0006 31.0547 90.9213 31.0395 90.8482 31.0077C90.7758 30.9705 90.7124 30.9179 90.6626 30.8536L88.2231 27.7681C88.233 27.8609 88.2398 27.95 88.2435 28.0354C88.2472 28.1208 88.2472 28.2019 88.2435 28.2786V31.0523H87.1853V25.8781H87.8128C87.8567 25.8753 87.9007 25.8753 87.9446 25.8781C87.9779 25.8819 88.0104 25.8907 88.0411 25.9041C88.0711 25.9184 88.0986 25.9372 88.1228 25.9598C88.1548 25.9899 88.1846 26.0221 88.2119 26.0564L90.6718 29.1642C90.6595 29.0652 90.6514 28.9686 90.6477 28.8746C90.644 28.7805 90.644 28.6926 90.6477 28.6109V25.8781H91.7115Z" fill="white"/>
        <path d="M98.5816 39.1597H2.04218C1.50056 39.1597 0.981124 38.9446 0.598141 38.5616C0.215158 38.1786 0 37.6592 0 37.1176L0 2.04218C0 1.50056 0.215158 0.981124 0.598141 0.598141C0.981124 0.215158 1.50056 0 2.04218 0L98.5816 0C99.1232 0 99.6427 0.215158 100.026 0.598141C100.409 0.981124 100.624 1.50056 100.624 2.04218V37.1176C100.624 37.6592 100.409 38.1786 100.026 38.5616C99.6427 38.9446 99.1232 39.1597 98.5816 39.1597ZM2.04218 1.85653C1.99294 1.85653 1.94572 1.87609 1.9109 1.9109C1.87609 1.94572 1.85653 1.99294 1.85653 2.04218V37.1176C1.85653 37.1668 1.87609 37.214 1.9109 37.2488C1.94572 37.2836 1.99294 37.3032 2.04218 37.3032H98.5816C98.6308 37.3032 98.6781 37.2836 98.7129 37.2488C98.7477 37.214 98.7673 37.1668 98.7673 37.1176V2.04218C98.7673 1.99294 98.7477 1.94572 98.7129 1.9109C98.6781 1.87609 98.6308 1.85653 98.5816 1.85653H2.04218Z" fill="#46C6F1"/>
        <path d="M38.4283 33.9744C38.1821 33.9744 37.946 33.8766 37.7719 33.7025C37.5978 33.5285 37.5 33.2923 37.5 33.0462V6.12651C37.5 5.88032 37.5978 5.64421 37.7719 5.47012C37.946 5.29604 38.1821 5.19824 38.4283 5.19824C38.6745 5.19824 38.9106 5.29604 39.0846 5.47012C39.2587 5.64421 39.3565 5.88032 39.3565 6.12651V33.0462C39.3565 33.2923 39.2587 33.5285 39.0846 33.7025C38.9106 33.8766 38.6745 33.9744 38.4283 33.9744Z" fill="#46C6F1"/>
        <path d="M15.2388 44.1204L12.9089 49.9406H11.6947L9.35547 44.1204H10.4415C10.5427 44.1154 10.6426 44.1441 10.7256 44.2021C10.7972 44.2567 10.8535 44.329 10.889 44.4119L12.014 47.5271C12.0672 47.6633 12.1192 47.8118 12.17 47.9727C12.2207 48.1336 12.2684 48.3019 12.3129 48.4777C12.35 48.3019 12.3921 48.1336 12.4392 47.9727C12.4862 47.8118 12.5363 47.6633 12.5895 47.5271L13.7035 44.4137C13.7369 44.3333 13.7914 44.2634 13.8613 44.2114C13.9422 44.15 14.0419 44.1185 14.1435 44.1223L15.2388 44.1204ZM17.0563 45.1582V46.5153H18.885V47.5141H17.0563V48.8991H19.4438V49.9406H15.6992V44.1204H19.4438V45.1582H17.0563ZM25.0301 49.9406H23.8085C23.7116 49.9479 23.6146 49.9277 23.5285 49.8824C23.4425 49.8371 23.371 49.7685 23.3221 49.6844L22.3567 47.9968C22.3201 47.9267 22.2631 47.8692 22.1931 47.8321C22.1232 47.795 22.0437 47.7799 21.965 47.7889H21.6215V49.9406H20.2718V44.1204H22.1655C22.5281 44.1133 22.8899 44.1571 23.2404 44.2504C23.5044 44.3208 23.7513 44.4439 23.9663 44.6124C24.1466 44.7575 24.2871 44.9459 24.3748 45.1601C24.4616 45.3786 24.5051 45.6119 24.5029 45.847C24.5039 46.028 24.4783 46.2081 24.4268 46.3817C24.3773 46.5471 24.3021 46.7037 24.204 46.8458C24.1008 46.9913 23.9755 47.1197 23.8327 47.2264C23.68 47.3421 23.5111 47.4347 23.3314 47.5011C23.4203 47.5472 23.5032 47.6039 23.5783 47.6701C23.6582 47.7408 23.7281 47.822 23.7863 47.9114L25.0301 49.9406ZM22.1637 46.8588C22.3231 46.8625 22.482 46.8386 22.6334 46.7882C22.7515 46.7503 22.8598 46.6869 22.9508 46.6026C23.0345 46.5219 23.0981 46.4227 23.1365 46.313C23.1743 46.198 23.1931 46.0776 23.1922 45.9565C23.1988 45.8442 23.1799 45.7319 23.1368 45.6281C23.0937 45.5242 23.0276 45.4314 22.9434 45.3569C22.7197 45.1957 22.4459 45.1194 22.1711 45.1415H21.629V46.8662L22.1637 46.8588ZM26.8792 49.9406H25.5221V44.1204H26.8792V49.9406ZM29.3614 45.1582V46.6304H31.3497V47.6719H29.3614V49.9406H28.0043V44.1204H31.7452V45.1582H29.3614ZM33.8839 49.9406H32.5268V44.1204H33.8839V49.9406ZM36.3661 45.1582V46.5153H38.1948V47.5141H36.3661V48.8991H38.7536V49.9406H35.009V44.1204H38.7536V45.1582H36.3661ZM44.8597 47.0259C44.864 47.4243 44.7902 47.8198 44.6425 48.1899C44.5042 48.5382 44.2957 48.8542 44.0298 49.1182C43.7543 49.3817 43.4276 49.5858 43.07 49.7178C42.6757 49.8669 42.2569 49.9406 41.8354 49.9351H39.5835V44.1204H41.8428C42.2645 44.1149 42.6834 44.1892 43.0774 44.3395C43.4326 44.4755 43.7565 44.6821 44.0298 44.9466C44.2961 45.2102 44.5048 45.5263 44.6425 45.8748C44.7888 46.2408 44.8625 46.6317 44.8597 47.0259ZM43.4784 47.0259C43.482 46.7624 43.4444 46.4999 43.3671 46.248C43.3009 46.0321 43.1916 45.8319 43.0459 45.6595C42.9058 45.4981 42.7305 45.371 42.5335 45.2882C42.3145 45.1984 42.0795 45.1541 41.8428 45.1582H40.9406V48.8991H41.8428C42.0795 48.9032 42.3145 48.859 42.5335 48.7692C42.7305 48.6863 42.9058 48.5593 43.0459 48.3978C43.1916 48.2254 43.3009 48.0252 43.3671 47.8093C43.4454 47.5557 43.4836 47.2913 43.4803 47.0259H43.4784ZM53.2104 47.0259C53.214 47.4273 53.1403 47.8257 52.9931 48.1992C52.8545 48.5549 52.644 48.8782 52.3747 49.1487C52.1054 49.4193 51.7831 49.6314 51.4281 49.7717C50.6317 50.075 49.7516 50.075 48.9552 49.7717C48.5992 49.6319 48.2759 49.4201 48.0056 49.1495C47.7353 48.8789 47.5239 48.5554 47.3846 48.1992C47.0945 47.4439 47.0945 46.6079 47.3846 45.8525C47.5233 45.5003 47.7324 45.18 47.9991 44.9113C48.272 44.6395 48.5973 44.426 48.9552 44.2838C49.3491 44.1277 49.7698 44.0501 50.1935 44.0554C50.6162 44.0502 51.0357 44.1284 51.4281 44.2856C51.7847 44.4291 52.1087 44.6432 52.3805 44.915C52.646 45.1843 52.8544 45.5044 52.9931 45.8563C53.14 46.2286 53.2138 46.6257 53.2104 47.0259ZM51.8291 47.0259C51.8328 46.763 51.7952 46.5011 51.7177 46.2498C51.6517 46.035 51.5424 45.836 51.3965 45.665C51.2566 45.5034 51.0813 45.3764 50.8841 45.2937C50.6648 45.2052 50.43 45.1616 50.1935 45.1656C49.9552 45.1616 49.7185 45.2052 49.4973 45.2937C49.2994 45.376 49.1234 45.5031 48.9831 45.665C48.8372 45.836 48.7279 46.035 48.6619 46.2498C48.5126 46.7583 48.5126 47.299 48.6619 47.8075C48.7279 48.0223 48.8372 48.2213 48.9831 48.3923C49.1229 48.5547 49.2991 48.6819 49.4973 48.7636C49.7189 48.8509 49.9554 48.8938 50.1935 48.8898C50.4298 48.8937 50.6645 48.8508 50.8841 48.7636C51.0816 48.6816 51.2571 48.5544 51.3965 48.3923C51.5424 48.2213 51.6517 48.0223 51.7177 47.8075C51.7955 47.5544 51.8331 47.2906 51.8291 47.0259ZM56.0657 44.1204C56.4234 44.1131 56.7799 44.1626 57.1221 44.2671C57.3891 44.3493 57.6362 44.4859 57.848 44.6681C58.0344 44.8329 58.1789 45.0397 58.2694 45.2715C58.3603 45.5084 58.4063 45.7603 58.4049 46.0141C58.4082 46.2865 58.361 46.5572 58.2657 46.8124C58.1748 47.0507 58.0284 47.2639 57.8387 47.4343C57.627 47.6185 57.3791 47.7563 57.1109 47.839C56.773 47.9422 56.4208 47.991 56.0676 47.9838H55.3658V49.9406H54.005V44.1204H56.0657ZM56.0657 46.9702C56.1975 46.9922 56.3326 46.983 56.4602 46.9434C56.5878 46.9037 56.7044 46.8348 56.8006 46.742C56.8968 46.6493 56.9699 46.5353 57.0141 46.4092C57.0583 46.2831 57.0724 46.1484 57.0552 46.0159C57.0579 45.8896 57.0378 45.7638 56.9958 45.6446C56.9564 45.5375 56.8929 45.441 56.8102 45.3624C56.7225 45.2784 56.6172 45.215 56.502 45.1768C56.3592 45.1316 56.2099 45.1102 56.0601 45.1137H55.3584V46.9702H56.0657ZM60.4397 45.1582V46.5153H62.2684V47.5141H60.4397V48.8991H62.8272V49.9406H59.0826V44.1204H62.8272V45.1582H60.4397ZM68.4135 49.9406H67.1919C67.0949 49.9479 66.9979 49.9277 66.9119 49.8824C66.8259 49.8371 66.7543 49.7685 66.7055 49.6844L65.7401 47.9968C65.7034 47.9267 65.6464 47.8692 65.5765 47.8321C65.5065 47.795 65.427 47.7799 65.3483 47.7889H65.0049V49.9406H63.6552V44.1204H65.547C65.9096 44.1133 66.2714 44.1571 66.6219 44.2504C66.8859 44.3208 67.1328 44.4439 67.3478 44.6124C67.5281 44.7575 67.6686 44.9459 67.7563 45.1601C67.8431 45.3786 67.8866 45.6119 67.8844 45.847C67.8854 46.028 67.8597 46.2081 67.8082 46.3817C67.7587 46.5471 67.6836 46.7037 67.5855 46.8458C67.4823 46.9913 67.357 47.1197 67.2141 47.2264C67.0615 47.3421 66.8926 47.4347 66.7129 47.5011C66.8018 47.5472 66.8847 47.6039 66.9598 47.6701C67.0396 47.7408 67.1096 47.822 67.1677 47.9114L68.4135 49.9406ZM65.547 46.8588C65.7064 46.8625 65.8653 46.8386 66.0167 46.7882C66.1348 46.7503 66.2432 46.6869 66.3342 46.6026C66.4179 46.5219 66.4814 46.4227 66.5198 46.313C66.5576 46.198 66.5764 46.0776 66.5755 45.9565C66.5821 45.8442 66.5632 45.7319 66.5201 45.6281C66.477 45.5242 66.4109 45.4314 66.3267 45.3569C66.103 45.1957 65.8292 45.1194 65.5544 45.1415H65.0123V46.8662L65.547 46.8588Z" fill="white"/>
        <path d="M74.1235 49.9406H73.0782C72.9771 49.9456 72.8772 49.9169 72.7942 49.8589C72.7225 49.8044 72.6662 49.7321 72.6308 49.6491L72.2874 48.6355H70.0762L69.7328 49.6491C69.6992 49.7295 69.6448 49.7994 69.575 49.8515C69.494 49.9129 69.3943 49.9444 69.2928 49.9406H68.2383L70.4902 44.1241H71.8715L74.1235 49.9406ZM71.981 47.7128L71.4426 46.1199C71.403 46.0184 71.3603 45.8996 71.3145 45.7634C71.2688 45.6273 71.2236 45.4788 71.179 45.3179C71.1394 45.48 71.0967 45.6304 71.0509 45.769C71.0051 45.9076 70.9624 46.0271 70.9228 46.1273L70.3863 47.7128H71.981ZM78.1948 45.1898H76.5574V49.9406H75.2077V45.1898H73.5702V44.1204H78.193L78.1948 45.1898ZM84.4495 47.0259C84.4531 47.4273 84.3794 47.8257 84.2323 48.1992C84.0937 48.5549 83.8831 48.8782 83.6138 49.1487C83.3445 49.4193 83.0223 49.6314 82.6672 49.7717C81.8708 50.075 80.9907 50.075 80.1943 49.7717C79.8383 49.6319 79.515 49.4201 79.2447 49.1495C78.9745 48.8789 78.763 48.5554 78.6237 48.1992C78.3336 47.4439 78.3336 46.6079 78.6237 45.8525C78.7624 45.5003 78.9715 45.18 79.2382 44.9113C79.5111 44.6395 79.8364 44.426 80.1943 44.2838C80.5883 44.1277 81.0089 44.0501 81.4326 44.0554C81.8553 44.0502 82.2748 44.1284 82.6672 44.2856C83.0239 44.4291 83.3478 44.6432 83.6196 44.915C83.8852 45.1843 84.0935 45.5044 84.2323 45.8563C84.3791 46.2286 84.4529 46.6257 84.4495 47.0259ZM83.0682 47.0259C83.0719 46.763 83.0343 46.5011 82.9568 46.2498C82.8908 46.035 82.7815 45.836 82.6356 45.665C82.4957 45.5034 82.3204 45.3764 82.1233 45.2937C81.9039 45.2052 81.6691 45.1616 81.4326 45.1656C81.1943 45.1616 80.9577 45.2052 80.7364 45.2937C80.5386 45.376 80.3625 45.5031 80.2222 45.665C80.0763 45.836 79.967 46.035 79.901 46.2498C79.7517 46.7583 79.7517 47.299 79.901 47.8075C79.967 48.0223 80.0763 48.2213 80.2222 48.3923C80.362 48.5547 80.5382 48.6819 80.7364 48.7636C80.958 48.8509 81.1945 48.8938 81.4326 48.8898C81.6689 48.8937 81.9036 48.8508 82.1233 48.7636C82.3207 48.6816 82.4962 48.5544 82.6356 48.3923C82.7815 48.2213 82.8908 48.0223 82.9568 47.8075C83.0347 47.5544 83.0722 47.2906 83.0682 47.0259ZM90.0024 49.9406H88.7808C88.6838 49.9479 88.5868 49.9277 88.5008 49.8824C88.4147 49.8371 88.3432 49.7685 88.2943 49.6844L87.329 47.9968C87.2923 47.9267 87.2353 47.8692 87.1653 47.8321C87.0954 47.795 87.0159 47.7799 86.9372 47.7889H86.5938V49.9406H85.2441V44.1204H87.1359C87.4985 44.1133 87.8603 44.1571 88.2108 44.2504C88.4747 44.3208 88.7217 44.4439 88.9367 44.6124C89.117 44.7575 89.2575 44.9459 89.3451 45.1601C89.432 45.3786 89.4755 45.6119 89.4732 45.847C89.4743 46.028 89.4486 46.2081 89.3971 46.3817C89.3476 46.5471 89.2724 46.7037 89.1743 46.8458C89.0712 46.9913 88.9459 47.1197 88.803 47.2264C88.6503 47.3421 88.4814 47.4347 88.3018 47.5011C88.3907 47.5472 88.4736 47.6039 88.5487 47.6701C88.6285 47.7408 88.6985 47.822 88.7566 47.9114L90.0024 49.9406ZM87.1359 46.8588C87.2953 46.8625 87.4542 46.8386 87.6056 46.7882C87.7237 46.7503 87.8321 46.6869 87.923 46.6026C88.0067 46.5219 88.0703 46.4227 88.1087 46.313C88.1465 46.198 88.1653 46.0776 88.1644 45.9565C88.171 45.8442 88.1521 45.7319 88.109 45.6281C88.0659 45.5242 87.9998 45.4314 87.9156 45.3569C87.6919 45.1957 87.4181 45.1194 87.1433 45.1415H86.6012V46.8662L87.1359 46.8588Z" fill="white"/>
        <path d="M20.247 28.7762C19.8575 28.7807 19.477 28.8929 19.1473 29.1003C18.8177 29.3077 18.5519 29.6023 18.3793 29.9514L18.3329 30.0405L18.2382 30.0108C17.6355 29.8376 17.0846 29.5188 16.6342 29.0825C16.1733 28.6623 15.8405 28.1204 15.6743 27.5193C15.4493 26.8332 15.4185 26.0983 15.5853 25.3958C15.7521 24.6933 16.11 24.0506 16.6193 23.5389C16.6233 23.5185 16.6322 23.4994 16.6453 23.4832L16.6731 23.4535C16.83 23.2846 16.9154 23.0616 16.9116 22.8312C16.9078 22.6007 16.815 22.3807 16.6527 22.2171C16.5703 22.1347 16.4725 22.0693 16.3648 22.0247C16.2572 21.9801 16.1418 21.9571 16.0252 21.9571C15.9087 21.9571 15.7933 21.9801 15.6856 22.0247C15.5779 22.0693 15.4801 22.1347 15.3977 22.2171C14.9313 22.7073 14.3361 23.0561 13.6804 23.2233C12.4477 23.5036 11.5361 23.4832 11.3263 23.1509C10.5459 22.856 9.86848 22.3398 9.377 21.6657C8.85814 20.9203 8.61575 20.0173 8.69167 19.1123C8.7676 18.2073 9.15706 17.3572 9.79286 16.7088C10.2193 16.2938 10.7242 15.9681 11.2781 15.7508C12.047 15.4749 12.8827 15.445 13.6693 15.6654C14.2468 15.8268 14.7789 16.1204 15.2232 16.5231C15.2598 16.5627 15.2927 16.6056 15.3216 16.6512C15.3433 16.685 15.3682 16.7168 15.3959 16.7459C15.4781 16.8282 15.5758 16.8936 15.6833 16.9381C15.7908 16.9827 15.906 17.0057 16.0224 17.0057C16.1388 17.0057 16.2541 16.9827 16.3616 16.9381C16.4691 16.8936 16.5668 16.8282 16.649 16.7459C16.7341 16.6592 16.7998 16.5555 16.8421 16.4416C16.8843 16.3277 16.902 16.2062 16.8941 16.085C16.9035 15.9615 16.8866 15.8375 16.8447 15.7211C16.8028 15.6046 16.7367 15.4983 16.6509 15.4092C16.6305 15.3903 16.6088 15.3729 16.5859 15.3572L16.6045 15.3071L16.5748 15.3498C16.5435 15.3298 16.5143 15.3067 16.4875 15.2811C16.0369 14.7739 15.7264 14.158 15.5867 13.4941C15.447 12.8302 15.483 12.1414 15.691 11.4956C15.7649 11.2721 15.7469 11.0284 15.6411 10.8181C15.5352 10.6078 15.3502 10.4481 15.1267 10.3743C14.9031 10.3004 14.6594 10.3184 14.4491 10.4242C14.2388 10.5301 14.0792 10.7151 14.0053 10.9387C13.718 11.8476 13.6644 12.8143 13.8494 13.7494L13.8809 13.9202L13.7101 13.885C12.7092 13.6689 11.6685 13.7286 10.6988 14.0576C10.0119 14.2953 9.33801 14.7278 8.57498 15.4092C7.63332 16.355 7.05243 17.6006 6.93306 18.9299C6.8137 20.2592 7.16339 21.5883 7.92148 22.6868C8.62131 23.6457 9.58127 24.3841 10.6877 24.8144C11.3062 25.0354 11.958 25.1484 12.6148 25.1485C12.9387 25.1374 13.2607 25.0952 13.5765 25.0223L13.8735 24.9647L13.8364 25.1392C13.6276 26.0915 13.6724 27.0818 13.9663 28.0113C14.2124 28.9024 14.7 29.7081 15.3754 30.3394C16.1898 31.1503 17.2305 31.6959 18.3607 31.9044L18.4127 31.9137L18.4406 31.9601C18.6209 32.2819 18.8828 32.5505 19.1999 32.7389C19.517 32.9272 19.8781 33.0288 20.247 33.0332C20.8117 33.0332 21.3534 32.8088 21.7527 32.4095C22.1521 32.0102 22.3764 31.4685 22.3764 30.9038C22.3764 30.339 22.1521 29.7974 21.7527 29.398C21.3534 28.9987 20.8117 28.7743 20.247 28.7743V28.7762Z" fill="#46C6F1"/>
        <path d="M31.6214 16.1982C30.9219 15.2385 29.9619 14.4995 28.8552 14.0687C27.8844 13.7361 26.841 13.6758 25.8384 13.8942L25.6676 13.9295L25.6991 13.7587C25.8852 12.8455 25.836 11.9 25.5562 11.011C25.3095 10.1212 24.8226 9.31639 24.1489 8.68481C23.3112 7.85148 22.2347 7.2999 21.0689 7.10677H21.0207L20.9928 7.06407C20.8049 6.77946 20.5501 6.5452 20.2508 6.38177C19.9514 6.21834 19.6166 6.1307 19.2755 6.12652C18.89 6.12375 18.511 6.22559 18.1788 6.4212C17.8466 6.61681 17.5737 6.89886 17.3891 7.23732C17.2045 7.57578 17.1152 7.95796 17.1306 8.34317C17.1461 8.72838 17.2657 9.10218 17.4768 9.42477C17.6879 9.74736 17.9825 10.0066 18.3293 10.175C18.6761 10.3434 19.0621 10.4146 19.4462 10.3809C19.8302 10.3473 20.1979 10.2101 20.5102 9.984C20.8224 9.7579 21.0675 9.45134 21.2193 9.09696L21.2639 8.99671L21.366 9.03384C21.9381 9.21057 22.4607 9.51896 22.892 9.93426C23.3543 10.3589 23.6876 10.9052 23.8537 11.5104C24.0604 12.1537 24.0963 12.8397 23.958 13.501C23.8197 14.1623 23.5118 14.7764 23.0647 15.2829C23.0333 15.3114 22.9998 15.3375 22.9645 15.3609C22.9382 15.3774 22.9134 15.396 22.8902 15.4166C22.8063 15.5036 22.7416 15.6072 22.7 15.7207C22.6585 15.8341 22.641 15.9551 22.6488 16.0757C22.636 16.2544 22.6784 16.4328 22.7701 16.5867C22.8618 16.7407 22.9985 16.8628 23.1618 16.9367C23.325 17.0105 23.507 17.0325 23.6832 16.9997C23.8594 16.9669 24.0213 16.8809 24.1471 16.7533C24.1728 16.7248 24.1964 16.6944 24.2176 16.6623C24.2448 16.6187 24.2752 16.5771 24.3086 16.5379C24.7517 16.1277 25.2844 15.8264 25.8644 15.6579C26.6379 15.441 27.4593 15.4656 28.2184 15.7285C28.9987 16.0236 29.6761 16.5397 30.1678 17.2137C30.6894 17.9608 30.9328 18.867 30.8558 19.7749C30.7788 20.6828 30.3863 21.535 29.7463 22.1836C29.3202 22.5989 28.8152 22.9246 28.2611 23.1416C27.4919 23.4156 26.6568 23.4454 25.8699 23.227C25.2204 23.045 24.6289 22.6984 24.1526 22.2208L22.4298 20.4998L22.4502 20.4329C22.5261 20.2306 22.5699 20.0176 22.5802 19.8017C22.6036 19.3199 22.471 18.8433 22.2022 18.4428C21.9333 18.0423 21.5424 17.7391 21.0876 17.5783C20.6328 17.4175 20.1382 17.4077 19.6774 17.5502C19.2165 17.6928 18.8139 17.9802 18.5293 18.3697C18.2447 18.7592 18.0933 19.2301 18.0975 19.7125C18.1018 20.1949 18.2614 20.663 18.5528 21.0475C18.8442 21.4319 19.2518 21.7122 19.7151 21.8466C20.1784 21.981 20.6727 21.9625 21.1246 21.7938L21.1952 21.7715L21.2453 21.8253L22.8252 23.4052C22.8501 23.4356 22.8678 23.4711 22.8772 23.5092V23.537C23.391 24.0482 23.7521 24.6926 23.92 25.3976C24.088 26.1027 24.056 26.8406 23.8277 27.5286C23.7907 27.6389 23.7762 27.7556 23.7851 27.8717C23.7941 27.9878 23.8262 28.1009 23.8797 28.2043C23.9322 28.3085 24.0048 28.4012 24.0934 28.4771C24.182 28.5529 24.2848 28.6104 24.3958 28.6462C24.4844 28.676 24.5772 28.691 24.6706 28.6908C24.8579 28.6911 25.0404 28.632 25.1919 28.5219C25.3434 28.4118 25.456 28.2564 25.5135 28.0781C25.818 27.1267 25.8679 26.1122 25.6583 25.1355L25.6211 24.9499L25.8328 24.9926C26.1926 25.0792 26.5602 25.1296 26.93 25.1429C27.5813 25.1429 28.2277 25.0298 28.8404 24.8088C29.5236 24.5767 30.1993 24.1497 30.9661 23.4628C31.9054 22.5184 32.485 21.2753 32.6047 19.9487C32.7244 18.6221 32.3766 17.2954 31.6214 16.1982Z" fill="#46C6F1"/>
    </g>
    <defs>
        <clipPath id="clip0_683_8463">
            <rect width="100.624" height="50" fill="white"/>
        </clipPath>
    </defs>
</svg>
