<svg width="132" height="36" viewBox="0 0 132 36" fill="none" xmlns="http://www.w3.org/2000/svg">
    <g clip-path="url(#clip0_683_8510)">
        <path d="M11.1489 29.2435C11.1489 27.5564 9.95645 26.5127 7.97198 26.4641H0.228516V35.4429H1.51528V32.1745H7.72035C8.86414 32.1745 9.50752 32.7206 9.50752 33.6643V35.4429H10.8486V33.6557C10.8571 33.2144 10.7341 32.7805 10.4953 32.4093C10.2565 32.0381 9.91264 31.7464 9.50752 31.5711C9.99653 31.4122 10.4207 31.0987 10.7162 30.6779C11.0117 30.2571 11.1625 29.7517 11.146 29.2378L11.1489 29.2435ZM7.92337 31.0307H1.56961V27.6565H7.92337C9.66193 27.6565 9.81063 28.9461 9.81063 29.3436C9.81063 29.7411 9.66193 31.0307 7.92337 31.0307ZM33.9446 28.2513C33.2984 26.9102 32.5149 26.364 31.3139 26.364C30.1129 26.364 29.3294 26.9102 28.6832 28.2513L25.2518 35.2513L25.1517 35.4486H26.5414L26.59 35.3485L27.7824 32.8665H34.8311L36.0235 35.3485L36.0721 35.4486H37.4618L37.3617 35.2513L33.9446 28.2513ZM28.4258 31.7255L29.9642 28.5973C30.3131 27.8538 30.7077 27.5535 31.3539 27.5535C31.9487 27.5535 32.3462 27.8395 32.7436 28.5973L34.2849 31.7255H28.4258ZM51.1615 30.9821C51.1615 34.0103 52.5026 35.4514 55.3307 35.5H62.3793V34.2104H55.4336C53.2976 34.2104 52.5055 33.3154 52.5055 30.9849C52.5055 28.6544 53.3004 27.7594 55.4336 27.7594H62.385V26.4641H55.3335C52.4054 26.5127 51.1644 27.8938 51.1644 30.9821H51.1615ZM77.1256 35.5H78.4152V26.5127H77.1256V35.5ZM103.933 34.2104C102.692 34.2104 102.395 33.813 100.162 30.779L100.061 30.6303C97.628 27.4049 96.9847 26.5098 94.8486 26.5098H93.7563V35.5H95.0459V27.8052C96.2383 27.8052 96.4757 28.2027 98.7204 31.0822L98.9691 31.431C101.403 34.6079 102.097 35.5029 104.133 35.5029H105.226V26.5127H103.936L103.933 34.2104ZM130.146 30.8334V34.2104H124.427C122.291 34.2104 121.499 33.3154 121.499 30.9849C121.499 28.6544 122.294 27.7594 124.427 27.7594H131.336V26.4641H124.338C121.508 26.5127 120.169 27.8938 120.169 30.9335C120.169 33.9731 121.51 35.4028 124.338 35.4514H131.438V30.8334H130.146Z" fill="url(#paint0_linear_683_8510)"/>
        <path d="M56.7729 9.83324V15.3921C56.7547 15.8406 56.5638 16.2647 56.24 16.5756C55.9162 16.8865 55.4847 17.0601 55.0358 17.0601C54.5869 17.0601 54.1554 16.8865 53.8316 16.5756C53.5079 16.2647 53.3169 15.8406 53.2987 15.3921V9.83324H50.219V15.9983C50.219 18.0828 52.3551 19.7699 55.0344 19.7699C57.6651 19.7699 59.8497 18.0828 59.8497 15.9983V9.83324H56.7729ZM66.7096 3.23071V19.3639H69.7864V3.23071H66.7096ZM61.4968 19.4154H64.565V3.23071H61.4882L61.4968 19.4154ZM46.456 11.0256C46.8733 10.6486 47.2079 10.1892 47.4387 9.67639C47.6695 9.16355 47.7915 8.60843 47.797 8.04607C47.7886 7.0165 47.3995 6.02647 46.7047 5.26666C45.9613 4.47172 44.6688 4.02565 42.9331 4.02565H37.6573V19.4154H44.46C47.0336 19.3667 49.1753 17.4309 49.1753 14.9975C49.0781 13.2103 48.5319 11.9693 46.4445 11.0256H46.456ZM43.8252 16.7446H40.8857V6.65636H42.9216C43.3649 6.68261 43.7814 6.87722 44.086 7.20038C44.3906 7.52355 44.5602 7.95086 44.5601 8.39493C44.5564 8.82832 44.3826 9.24291 44.0761 9.54938C43.7696 9.85585 43.355 10.0297 42.9216 10.0334H41.8322V12.8128H43.768C44.0258 12.8147 44.2807 12.8676 44.5179 12.9686C44.7552 13.0696 44.97 13.2166 45.15 13.4012C45.33 13.5857 45.4717 13.8041 45.5668 14.0438C45.6618 14.2834 45.7085 14.5395 45.7039 14.7973C45.7039 15.8896 45.0577 16.6331 43.8167 16.7332L43.8252 16.7446ZM10.5037 8.54362C10.4977 7.32463 10.0078 6.15794 9.14186 5.30001C8.27588 4.44208 7.10467 3.96313 5.88568 3.96845H0.275391V19.3582H3.55235V6.65636H5.23086C5.50545 6.64721 5.77911 6.69289 6.03584 6.79071C6.29257 6.88854 6.52724 7.03655 6.72611 7.22611C6.92498 7.41566 7.08408 7.64295 7.1941 7.8947C7.30412 8.14645 7.36286 8.41761 7.36689 8.69232C7.36689 9.78464 6.37465 10.7283 5.18225 10.7283H4.43879V14.4027L7.71575 19.4668H11.4874L6.96942 13.013C7.96783 12.7613 8.85499 12.1865 9.49269 11.3782C10.1304 10.5698 10.4829 9.57318 10.4952 8.54362H10.5037ZM16.2627 9.43863C15.5896 9.44005 14.9235 9.57533 14.3032 9.8366C13.6829 10.0979 13.1207 10.4799 12.6495 10.9605C12.1782 11.4411 11.8072 12.0106 11.5581 12.6359C11.3091 13.2612 11.1868 13.9299 11.1986 14.6028C11.1939 15.9567 11.7228 17.2578 12.6707 18.2244C13.6185 19.191 14.9091 19.7453 16.2627 19.7671C18.3988 19.7671 20.0858 18.7748 20.9294 17.285L18.4474 16.1412C18.2762 16.5072 18.0018 16.8151 17.6578 17.027C17.3138 17.2389 16.9153 17.3455 16.5115 17.3337C16.2472 17.3447 15.9833 17.3033 15.7351 17.2118C15.4869 17.1203 15.2593 16.9805 15.0655 16.8005C14.8716 16.6205 14.7154 16.4038 14.6058 16.1631C14.4962 15.9223 14.4354 15.6622 14.4269 15.3978V15.2977H21.2296C21.2296 15.1004 21.2782 14.8516 21.2782 14.6515C21.2268 11.2744 19.0421 9.43577 16.2627 9.43577V9.43863ZM14.4269 13.4591C14.4171 13.2052 14.4585 12.952 14.5488 12.7146C14.6391 12.4772 14.7765 12.2604 14.9526 12.0774C15.1286 11.8943 15.3399 11.7486 15.5736 11.6491C15.8073 11.5496 16.0587 11.4984 16.3128 11.4984C16.5668 11.4984 16.8182 11.5496 17.0519 11.6491C17.2857 11.7486 17.4969 11.8943 17.673 12.0774C17.8491 12.2604 17.9864 12.4772 18.0767 12.7146C18.167 12.952 18.2085 13.2052 18.1986 13.4591H14.4269ZM33.391 19.4154V3.27932H30.3113V10.9256C29.9084 10.5189 29.4293 10.1957 28.9013 9.97445C28.3734 9.75316 27.807 9.63813 27.2345 9.63594C24.7039 9.63594 22.6165 11.8692 22.6165 14.6486C22.6165 17.428 24.701 19.6613 27.2831 19.6613C27.8675 19.6566 28.4451 19.5356 28.9822 19.3054C29.5193 19.0751 30.0051 18.7402 30.4114 18.3202V19.4125L33.391 19.4154ZM28.1782 17.0334C26.9372 17.0334 25.9449 15.9411 25.9449 14.5514C25.9449 13.2103 26.9372 12.0694 28.1782 12.0694C29.4192 12.0694 30.4114 13.1617 30.4114 14.5514C30.4114 15.9411 29.3677 17.0305 28.1753 17.0305L28.1782 17.0334Z" fill="#EA1C2D"/>
        <path d="M103.786 21.5515C109.599 21.5515 114.311 16.8389 114.311 11.0257C114.311 5.21253 109.599 0.5 103.786 0.5C97.9723 0.5 93.2598 5.21253 93.2598 11.0257C93.2598 16.8389 97.9723 21.5515 103.786 21.5515Z" fill="#FCD700"/>
        <path d="M131.289 18.0744C131.289 18.0258 131.24 18.0258 131.24 17.9743C131.243 17.9053 131.226 17.8371 131.192 17.777C131.183 17.6072 131.149 17.4396 131.092 17.2795C131.034 17.1494 130.944 17.0359 130.831 16.949C130.719 16.8621 130.586 16.8047 130.445 16.7819C130.443 16.6896 130.408 16.6012 130.345 16.5332C130.169 16.3092 129.949 16.1234 129.699 15.987C129.651 15.9384 129.599 15.8869 129.55 15.8869L129.502 15.8383C129.371 15.7452 129.216 15.6934 129.056 15.6896C128.909 15.6937 128.766 15.7317 128.637 15.8007C128.508 15.8697 128.397 15.9677 128.312 16.0871C128.256 15.9786 128.222 15.86 128.212 15.7382C128.161 15.6108 128.128 15.4771 128.112 15.3408V15.2921C128.069 15.1116 127.977 14.9465 127.846 14.8153C127.714 14.684 127.549 14.5917 127.369 14.5487C127.22 14.5487 127.083 14.5001 126.971 14.5001C126.837 14.4981 126.704 14.4818 126.574 14.4515C126.577 14.4132 126.594 14.3775 126.622 14.3514C126.676 14.2644 126.71 14.1669 126.722 14.0654C126.858 13.6496 126.892 13.2075 126.822 12.7758C126.923 12.7758 127.071 12.8244 127.22 12.8244C127.645 12.8137 128.065 12.7296 128.461 12.5756C128.889 12.3801 129.251 12.0654 129.504 11.6694C129.758 11.2733 129.892 10.8126 129.891 10.3424V10.2795C129.791 9.38447 129.296 8.54092 128.352 7.70595C128.615 7.65385 128.866 7.55713 129.096 7.42C129.791 6.97393 130.088 6.13038 129.891 5.18675V5.13814C129.874 4.99088 129.804 4.85467 129.695 4.7544C129.586 4.65413 129.444 4.59648 129.296 4.59198C129.149 4.58873 129.007 4.64197 128.898 4.74068L128.85 4.78928L128.701 4.93798C128.517 5.04056 128.315 5.1075 128.106 5.13529C127.958 5.1839 127.758 5.23536 127.56 5.28397C126.702 5.56992 126.171 6.02744 125.97 6.62507C125.822 6.97393 125.922 7.42 126.119 7.86608V7.9147C126.38 8.30776 126.698 8.65956 127.063 8.9584C127.509 9.40448 127.958 9.81625 128.055 10.2995C128.055 10.3996 128.104 10.5483 127.806 10.797C127.665 10.859 127.514 10.893 127.36 10.8971C127.086 10.8787 126.816 10.8119 126.565 10.6998C126.216 10.5025 125.822 10.2537 125.473 10.005C124.889 9.58028 124.255 9.2297 123.586 8.96127C123.268 8.83209 122.934 8.74833 122.593 8.71249C122.242 8.66519 121.905 8.54646 121.601 8.36363L121.552 8.31502C121.425 8.2491 121.307 8.16534 121.204 8.06625C120.853 7.77441 120.447 7.55478 120.011 7.42C119.85 7.36743 119.683 7.33384 119.514 7.31992C119.316 7.27131 119.228 7.27131 119.165 7.21984C119.065 7.17123 119.016 7.11976 118.916 7.07115C118.605 6.82737 118.273 6.61114 117.924 6.4249C117.338 6.15281 116.722 5.95308 116.088 5.83014C116.039 5.83014 115.988 5.73005 115.891 5.63283C115.771 5.48796 115.638 5.35486 115.493 5.23536C115.005 4.78206 114.371 4.51834 113.706 4.4919H113.509C113.102 4.57078 112.724 4.75966 112.416 5.03806C111.87 5.53561 111.273 5.93307 110.678 6.37915C109.722 7.02471 108.839 7.77365 108.047 8.61241C107.189 9.50743 106.903 10.5969 106.617 11.5405C106.561 11.683 106.527 11.8335 106.517 11.9866C106.469 12.2354 106.369 12.5328 106.32 12.7815C105.971 14.1226 105.674 15.4122 104.433 16.2129C104.34 16.2813 104.266 16.3712 104.216 16.4748C104.166 16.5785 104.142 16.6927 104.147 16.8077C104.167 16.9229 104.214 17.0321 104.282 17.1267C104.351 17.2214 104.441 17.299 104.544 17.3538C104.697 17.4156 104.863 17.441 105.028 17.4282C105.026 17.4936 105.038 17.5587 105.064 17.619C105.089 17.6792 105.128 17.7331 105.176 17.777C105.244 17.8559 105.327 17.9191 105.422 17.962C105.516 18.005 105.619 18.0268 105.722 18.0258C106.58 18.0258 107.212 17.5283 107.707 17.0336C107.922 17.2235 108.18 17.3589 108.459 17.4282H108.656C108.937 17.3623 109.227 17.3459 109.514 17.3796C109.763 17.4796 110.012 17.5769 110.309 17.6655C110.506 17.7141 110.706 17.8142 110.904 17.8628L111.004 17.9114H111.104C111.315 17.8917 111.518 17.8172 111.692 17.6954C111.866 17.5735 112.005 17.4085 112.096 17.2166V17.1422C112.096 17.0936 112.145 17.0421 112.145 16.9935L112.193 17.0936C112.237 17.3584 112.334 17.6115 112.479 17.8371C112.558 17.931 112.657 18.0056 112.769 18.0552C112.881 18.1048 113.003 18.128 113.126 18.123H113.412L113.46 18.1716C113.599 18.3222 113.769 18.4412 113.958 18.5205C114.182 18.609 114.415 18.6751 114.653 18.7178C114.945 18.777 115.232 18.8602 115.51 18.9666H115.559C115.768 19.0396 115.985 19.0895 116.205 19.1153C116.495 19.1126 116.775 19.0118 117 18.8293C117.251 18.6278 117.426 18.3478 117.498 18.0344C117.525 18.0378 117.552 18.0352 117.578 18.0268C117.603 18.0184 117.627 18.0044 117.646 17.9858C118.044 17.8371 118.39 17.1279 118.39 17.1279C118.438 17.0793 118.439 17.0278 118.49 16.9792C118.583 16.8488 118.635 16.6934 118.639 16.5332C118.629 16.36 118.56 16.1956 118.441 16.0686C118.323 15.9417 118.164 15.8601 117.992 15.8383H117C116.914 15.8303 116.828 15.8471 116.751 15.8869C116.703 15.8383 116.651 15.6896 116.554 15.6381H117.2C117.633 15.6159 118.064 15.5663 118.49 15.4894C118.852 15.4473 119.217 15.4311 119.582 15.4408H119.682C119.85 15.4346 120.017 15.4509 120.18 15.4894C120.329 15.4894 120.529 15.5381 120.726 15.5381H120.923C121.109 15.5289 121.293 15.4953 121.47 15.438C121.47 15.5381 121.518 15.6353 121.518 15.7868L121.567 15.8869C121.673 16.4883 122.012 17.0235 122.51 17.3767L122.61 17.4253C122.925 17.6418 123.28 17.7935 123.654 17.8714H124.186C124.514 17.8081 124.852 17.8152 125.178 17.8921C125.503 17.969 125.808 18.114 126.073 18.3175L126.122 18.3661L126.271 18.5148C126.425 18.6404 126.589 18.755 126.76 18.8579C126.902 18.9147 127.053 18.9484 127.206 18.958C127.413 18.9581 127.617 18.907 127.8 18.8093C127.8 18.8579 127.849 18.8579 127.849 18.9094C127.95 19.0698 128.066 19.2193 128.198 19.3555C128.454 19.5919 128.793 19.7174 129.142 19.7043H129.788C129.888 19.7043 129.936 19.7043 129.936 19.6557C130.04 19.7236 130.162 19.7585 130.285 19.7558H130.434L131.029 19.5585C131.194 19.4855 131.332 19.3638 131.426 19.2096C131.526 18.5148 131.426 18.266 131.278 18.0658L131.289 18.0744ZM112.374 15.0948L112.325 15.0462C112.325 14.9976 112.276 14.9976 112.276 14.9462C112.202 14.8346 112.137 14.7181 112.079 14.5973C112.276 14.5973 112.428 14.6459 112.625 14.6459L112.374 15.0948ZM103.438 15.8898L103.152 15.7411C102.875 15.5321 102.654 15.2594 102.505 14.9462L102.22 14.5001C102.116 14.3716 101.999 14.2546 101.871 14.1512L101.822 14.1026C101.418 13.0834 101.151 12.0151 101.027 10.9257C100.978 10.5205 100.842 10.1305 100.63 9.78194C100.057 8.92867 99.4263 8.11563 98.7424 7.34852L98.5937 7.19983L98.5451 7.15121L96.3119 5.31543L96.2632 5.26682C95.9657 5.03007 95.6302 4.8454 95.271 4.72066C94.6395 4.51241 93.9554 4.5296 93.3351 4.76927H93.2865C93.0871 4.85587 92.9028 4.97362 92.7404 5.11813C92.5026 5.2992 92.233 5.43402 91.9454 5.51559H91.8454C91.6255 5.62818 91.3919 5.7118 91.1505 5.76436C90.5488 5.89498 89.987 6.16753 89.512 6.5593L89.2261 6.84525C89.126 6.94533 88.9773 7.04255 88.9401 7.09402H88.8401C88.0746 7.05897 87.326 7.32596 86.7555 7.83749C86.424 8.16777 86.0368 8.43689 85.6117 8.63242C85.4202 8.69804 85.2193 8.73185 85.0169 8.7325C84.7474 8.75337 84.4809 8.80322 84.222 8.88119C83.5757 9.02989 82.981 9.52744 82.4834 9.87343C82.3606 9.98157 82.2275 10.0774 82.086 10.1594C82.0374 10.208 81.9859 10.208 81.9373 10.2595C81.3911 10.5454 80.945 10.8542 80.3474 10.8542H80.2988C80.1516 10.833 80.0117 10.7767 79.8908 10.6901C79.7699 10.6035 79.6715 10.4892 79.6039 10.3567C79.5546 10.1811 79.5552 9.99517 79.6058 9.81989C79.6563 9.64461 79.7547 9.48688 79.8899 9.36445C80.082 9.15643 80.299 8.97299 80.5361 8.81829C80.9031 8.52591 81.236 8.19306 81.5284 7.82605C81.7421 7.53408 81.8488 7.17743 81.8306 6.81605C81.8124 6.45466 81.6703 6.11057 81.4283 5.84158C81.0794 5.44411 80.436 5.2468 79.9385 5.09811H79.7412C79.7144 5.1015 79.6871 5.0989 79.6614 5.09049C79.6357 5.08209 79.6121 5.06808 79.5925 5.0495C79.4924 5.0495 79.3952 5.00089 79.3065 5.00089C79.1066 4.94462 78.9206 4.84722 78.7604 4.71494L78.3143 4.42899L77.9168 4.23169L77.6681 4.62915C77.4589 4.93431 77.3703 5.30617 77.4193 5.67287V5.70432C77.487 6.08044 77.6442 6.43475 77.8776 6.73734C78.111 7.03994 78.4138 7.28192 78.7604 7.44288C79.4552 7.72882 78.809 7.44288 78.809 7.49149C78.9515 7.54823 79.102 7.58202 79.2551 7.59158C78.8708 7.90114 78.5209 8.25105 78.2114 8.63528C77.5651 9.33014 77.5651 10.4225 77.8139 11.1659C77.994 11.6123 78.2928 12.0009 78.6778 12.2897C79.0629 12.5785 79.5196 12.7565 79.9985 12.8044C80.1472 12.8044 80.2845 12.853 80.4446 12.853C80.6951 12.844 80.9441 12.8105 81.1881 12.7529C81.1881 13.1018 81.2367 13.3477 81.2367 13.4964C81.302 13.8035 81.3978 14.1033 81.5226 14.3914C81.3518 14.4971 81.1683 14.5807 80.9765 14.6402C80.8278 14.6402 80.6905 14.6888 80.579 14.6888H80.3817C80.215 14.7023 80.0578 14.7718 79.9356 14.8861C79.762 15.1096 79.6275 15.361 79.5382 15.6296C79.4968 15.765 79.4472 15.8977 79.3895 16.027C79.3409 16.0756 79.2894 16.1757 79.2408 16.2243C79.1513 16.0841 79.0322 15.965 78.8919 15.8755C78.7713 15.7755 78.6196 15.7208 78.463 15.7208C78.3064 15.7208 78.1547 15.7755 78.0341 15.8755C77.9855 15.9241 77.934 15.9241 77.934 15.9756H77.8625C77.7138 16.0756 77.5137 16.2243 77.3164 16.373C77.1777 16.483 77.0883 16.6434 77.0676 16.8191C77.0407 16.8157 77.0135 16.8183 76.9878 16.8267C76.9621 16.8351 76.9385 16.8491 76.9189 16.8677C76.7477 16.9517 76.5969 17.0719 76.4769 17.22C76.3569 17.3682 76.2706 17.5407 76.224 17.7256C76.224 17.8743 76.1754 18.0744 76.1754 18.1716L76.1268 18.2203C76.0186 18.3442 75.959 18.5032 75.959 18.6678C75.959 18.8323 76.0186 18.9913 76.1268 19.1153C76.4241 19.3109 76.7648 19.4307 77.1191 19.4641H77.3164C77.3541 19.4593 77.3893 19.4422 77.4164 19.4155H77.5766C77.6766 19.4155 77.7739 19.4641 77.8625 19.4641C78.056 19.5215 78.2557 19.5551 78.4573 19.5642C78.6816 19.5681 78.9035 19.517 79.1035 19.4155C79.3918 19.2642 79.6197 19.0191 79.7498 18.7207C79.7984 18.6721 79.7984 18.572 79.8499 18.5234H79.8985C80.0091 18.5676 80.1288 18.5843 80.2473 18.572C80.7239 18.5713 81.1834 18.394 81.5369 18.0744C81.637 17.9743 81.7342 17.9257 81.7857 17.8256C81.8858 17.7256 81.983 17.6769 82.0345 17.5769C82.1451 17.5326 82.2648 17.5159 82.3833 17.5283C82.6338 17.5372 82.8829 17.5707 83.1268 17.6283C83.5938 17.7327 84.0822 17.6805 84.5165 17.4796C84.721 17.3742 84.9195 17.2578 85.1113 17.1308H85.1599C85.2491 17.0926 85.3328 17.0426 85.4087 16.9821C85.8061 16.7848 86.1035 16.2872 86.3037 15.9384C86.4115 15.7515 86.4951 15.5516 86.5525 15.3436H86.6525C86.92 15.3348 87.1862 15.3013 87.4475 15.2435C87.593 15.2055 87.7433 15.1892 87.8936 15.1949H88.0422C88.291 15.1949 88.637 15.2435 88.9001 15.2435C89.0974 15.2435 89.249 15.2921 89.5463 15.2921H89.9924C90.2467 15.2989 90.4991 15.247 90.7302 15.1406C90.7788 15.1892 90.8789 15.3379 90.9275 15.3894H90.8789C90.6966 15.4019 90.5227 15.4709 90.3813 15.5867C90.1618 15.4927 89.9169 15.4756 89.6864 15.5381C89.394 15.5375 89.1038 15.5878 88.8286 15.6868C88.7252 15.705 88.6271 15.7457 88.5411 15.8059C88.4551 15.8662 88.3834 15.9446 88.3311 16.0356C88.2775 16.137 88.2537 16.2514 88.2623 16.3657C88.2709 16.4801 88.3116 16.5896 88.3797 16.6819C88.5284 16.9306 88.6656 17.1794 88.8258 17.4768L88.8744 17.5769C88.9405 17.6717 89.03 17.7478 89.1342 17.7979C89.2384 17.848 89.3538 17.8703 89.4691 17.8628H89.6178C89.6178 17.8757 89.6229 17.8881 89.6321 17.8972C89.6412 17.9063 89.6536 17.9114 89.6664 17.9114C89.7831 18.1606 89.9529 18.3812 90.164 18.5577C90.4316 18.7745 90.7633 18.8971 91.1076 18.9065C91.258 18.9148 91.4087 18.8984 91.5537 18.8579C92.2335 18.6621 92.897 18.4135 93.5382 18.1145H93.8241C94.1724 18.1275 94.5117 18.0021 94.7677 17.7656L94.8164 17.717V17.6684C94.9164 17.5197 95.0651 17.3195 95.1652 17.1708V17.2194C95.2418 17.4177 95.3789 17.5868 95.557 17.7028C95.7351 17.8188 95.9452 17.8758 96.1574 17.8657C96.5548 17.8535 96.9449 17.756 97.3012 17.5797C97.3498 17.5797 97.4013 17.5311 97.4499 17.5311H97.4985C97.8504 17.41 98.2297 17.3931 98.5909 17.4825H98.691C99.1125 17.4315 99.51 17.2586 99.8347 16.985C100.107 17.2773 100.438 17.5084 100.806 17.6627C101.175 17.817 101.572 17.8911 101.971 17.88H102.257C102.386 17.8526 102.504 17.7852 102.594 17.6872C102.683 17.5892 102.739 17.4655 102.754 17.3338V17.1851C102.781 17.1885 102.808 17.1859 102.834 17.1775C102.86 17.1691 102.883 17.1551 102.903 17.1365C103.033 17.1088 103.15 17.0412 103.239 16.9433C103.329 16.8453 103.385 16.7219 103.401 16.5904C103.749 16.2415 103.649 15.9956 103.401 15.8955L103.438 15.8898ZM96.003 14.46C95.9759 14.4867 95.9407 14.5038 95.903 14.5087C95.7421 14.6632 95.593 14.8295 95.4569 15.0062C95.3812 14.8789 95.3152 14.746 95.2596 14.6087C95.4831 14.573 95.7005 14.5066 95.9058 14.4114C96.0059 14.46 96.0059 14.4114 96.0059 14.46H96.003Z" fill="#FCD700"/>
        <path d="M77.227 17.1821C77.1341 17.2124 77.0497 17.2642 76.9807 17.3333C76.9116 17.4023 76.8598 17.4867 76.8295 17.5796C76.7809 18.1257 76.7809 18.1744 76.6322 18.3745C76.6087 18.402 76.5957 18.437 76.5957 18.4732C76.5957 18.5094 76.6087 18.5443 76.6322 18.5718C76.8401 18.6601 77.0567 18.7263 77.2785 18.7691C77.3271 18.7691 77.3785 18.6204 77.4758 18.2716C77.5244 18.0743 77.6245 17.8255 77.6731 17.6253C77.6699 17.5871 77.6525 17.5514 77.6244 17.5253C77.5244 17.4252 77.3757 17.1764 77.227 17.1764V17.1821ZM77.8732 17.1821C77.8966 17.2124 77.9264 17.2371 77.9606 17.2544C77.9947 17.2717 78.0323 17.2812 78.0705 17.2822C78.0974 17.2856 78.1246 17.283 78.1503 17.2746C78.176 17.2662 78.1996 17.2522 78.2192 17.2336C78.5052 17.0849 78.814 16.5387 78.8655 16.4901C78.9141 16.39 78.8169 16.2928 78.6682 16.2042C78.6315 16.1791 78.5882 16.1657 78.5438 16.1657C78.4994 16.1657 78.456 16.1791 78.4194 16.2042C78.3708 16.2528 78.3193 16.2528 78.2707 16.3043C78.122 16.4043 77.9847 16.5016 77.7731 16.6531C77.7107 16.7211 77.6751 16.8096 77.6731 16.9019C77.6697 16.9287 77.6723 16.956 77.6807 16.9817C77.6891 17.0074 77.7031 17.0309 77.7217 17.0506C77.7217 17.0506 77.8218 17.1993 77.8704 17.1993L77.8732 17.1821ZM103.191 16.3243C103.083 16.2578 102.965 16.2077 102.842 16.1756C102.467 15.9338 102.169 15.5894 101.984 15.1833C101.883 15.0459 101.799 14.896 101.736 14.7373C101.667 14.6304 101.583 14.5341 101.487 14.4513C101.387 14.4027 101.338 14.3026 101.289 14.254C100.852 13.1535 100.564 11.9995 100.432 10.8226C100.397 10.5082 100.3 10.2038 100.146 9.92762C99.6481 9.06978 98.4071 7.69437 98.3585 7.59428L98.2098 7.44559L98.1612 7.39699L95.9766 5.5612C95.6932 5.36972 95.3938 5.20325 95.0816 5.06365C94.8548 5.00258 94.6215 4.96897 94.3867 4.96357C94.082 4.96022 93.779 5.01055 93.4917 5.11226C93.3198 5.19656 93.1535 5.29208 92.9941 5.39821C92.717 5.58609 92.416 5.7361 92.0991 5.84429C91.8593 5.94932 91.6104 6.03258 91.3557 6.09306C90.8323 6.21253 90.3432 6.45022 89.9259 6.78792L89.64 7.07387C89.2425 7.42272 89.2425 7.47133 88.8965 7.47133C88.2644 7.45469 87.6474 7.66578 87.1579 8.0661C86.7903 8.46905 86.33 8.77626 85.8169 8.96112C85.5923 9.03938 85.3589 9.08933 85.122 9.10981C84.7731 9.15842 84.7245 9.15843 84.3785 9.2099C83.8324 9.30998 83.2862 9.75606 82.8401 10.1049C82.6915 10.205 82.4913 10.3909 82.3941 10.4538C82.3455 10.5024 82.294 10.5024 82.2454 10.5538C81.6506 10.9027 81.1016 11.2001 80.4096 11.2001H80.361C80.1024 11.1834 79.8548 11.0891 79.6507 10.9294C79.4467 10.7697 79.2955 10.5521 79.2172 10.3051C79.1431 10.0324 79.1455 9.74461 79.2242 9.47324C79.3029 9.20187 79.4548 8.95741 79.6633 8.76667C79.8606 8.56937 80.1093 8.36921 80.3095 8.1719C80.6471 7.8989 80.9627 7.59963 81.2531 7.27689C81.3912 7.07819 81.4612 6.84005 81.4524 6.59823C81.4436 6.35641 81.3567 6.12396 81.2045 5.93579C80.9186 5.58693 80.2123 5.43824 79.9635 5.38963H79.8148C79.6661 5.34102 79.5289 5.34102 79.3173 5.28955C78.9198 5.18946 78.5738 4.84347 78.2249 4.64331C78.152 4.74178 78.1009 4.85476 78.0753 4.97462C78.0496 5.09448 78.05 5.21844 78.0762 5.33816C78.1249 5.88432 78.6224 6.43048 79.12 6.67926C79.1329 6.67926 79.1452 6.68437 79.1543 6.69349C79.1634 6.70261 79.1686 6.71497 79.1686 6.72786C79.3287 6.78503 79.4963 6.81874 79.6661 6.82795H79.8663C79.9641 6.82166 80.062 6.83831 80.1522 6.87656C80.2523 6.92517 80.3495 6.97664 80.3495 7.12533C80.3545 7.16446 80.3476 7.20417 80.3297 7.23934C80.3119 7.27451 80.2839 7.30352 80.2495 7.32264C80.1494 7.37125 80.1008 7.47133 80.0007 7.51994C79.5399 7.86527 79.1231 8.26571 78.7597 8.71234C78.2621 9.2585 78.2621 10.1421 78.4737 10.7483C78.6219 11.1084 78.8678 11.4199 79.1835 11.6478C79.4993 11.8756 79.8724 12.0108 80.2609 12.0379C80.361 12.0379 80.5097 12.0865 80.6097 12.0865C80.9978 12.0694 81.3821 12.0031 81.7535 11.8892H81.8022C81.8022 11.8892 81.8508 11.8892 81.8508 11.9893C81.8444 12.1727 81.8607 12.3561 81.8994 12.5355C81.8994 12.8214 81.948 13.0816 81.948 13.2303C81.9966 13.4791 82.1453 13.7765 82.1968 14.0253C82.2308 14.0853 82.2477 14.1536 82.2454 14.2226C82.2646 14.2744 82.2652 14.3314 82.2469 14.3836C82.2286 14.4358 82.1927 14.48 82.1453 14.5085C81.8652 14.7213 81.5438 14.8732 81.2017 14.9546C81.053 14.9546 80.8528 15.0032 80.7556 15.0032H80.6069C80.5583 15.0032 80.5068 15.0518 80.4582 15.0518C80.3469 15.2195 80.2629 15.4039 80.2094 15.598C80.1646 15.7551 80.0982 15.9052 80.0121 16.044C79.813 16.3099 79.5596 16.5302 79.2686 16.6903C79.22 16.7389 79.12 16.7904 79.0713 16.839C78.9671 17.0255 78.8328 17.1936 78.6739 17.3365C78.5654 17.4352 78.4231 17.4885 78.2764 17.4852C78.0802 17.7642 77.96 18.0894 77.9275 18.4288C77.9309 18.4557 77.9283 18.4829 77.9199 18.5086C77.9115 18.5344 77.8975 18.5579 77.8789 18.5775V18.6262H77.9275C78.0276 18.6262 78.1763 18.6748 78.2764 18.6748C78.4389 18.7155 78.6066 18.7319 78.774 18.7234C78.9122 18.7198 79.048 18.6856 79.1714 18.6233C79.3687 18.5084 79.5248 18.3343 79.6175 18.1257C79.6834 17.9982 79.7672 17.8808 79.8663 17.7769C79.9343 17.7144 80.0227 17.6789 80.1151 17.6768C80.2009 17.6688 80.2873 17.6857 80.3638 17.7254C80.4639 17.7254 80.5125 17.774 80.6126 17.774C80.9509 17.7365 81.2749 17.6167 81.5562 17.4252C81.6563 17.3766 81.7049 17.2765 81.805 17.2279C81.9092 17.1187 82.0264 17.0227 82.1539 16.9419C82.3385 16.8525 82.5449 16.8178 82.7486 16.8418C83.0372 16.8468 83.3245 16.8803 83.6065 16.9419C83.7348 16.9825 83.8696 16.999 84.0039 16.9905C84.2283 16.9944 84.4501 16.9434 84.6502 16.8418C84.8546 16.7364 85.0532 16.62 85.245 16.493C85.3342 16.4548 85.4178 16.4048 85.4937 16.3443C85.7951 16.1226 86.0343 15.8272 86.1886 15.4864C86.2887 15.2891 86.4374 14.8917 86.4374 14.8917L86.0885 14.6057V14.6543C86.0885 14.6543 85.8397 15.0518 85.691 15.2491C85.0448 16.1441 84.004 16.2413 83.1604 16.2413H82.9631C82.4977 16.2187 82.0331 16.3007 81.6036 16.4814C81.174 16.662 80.7905 16.9366 80.4811 17.2851C80.4325 17.3337 80.381 17.3337 80.381 17.2851V17.185C80.3776 17.1581 80.3802 17.1309 80.3886 17.1052C80.397 17.0795 80.411 17.0559 80.4296 17.0363C81.0758 16.0927 82.2168 15.9926 83.1118 15.944C83.6646 15.9306 84.2076 15.7949 84.7016 15.5465C85.211 15.2405 85.5974 14.7661 85.794 14.2054C85.8882 13.881 85.9543 13.549 85.9913 13.2132C86.0399 12.9644 86.0914 12.667 86.14 12.4182C86.14 12.4053 86.1451 12.393 86.1542 12.3839C86.1633 12.3747 86.1757 12.3696 86.1886 12.3696H86.2372C86.2633 12.371 86.288 12.382 86.3064 12.4005C86.3249 12.4189 86.3359 12.4436 86.3373 12.4697C86.188 13.0561 86.188 13.6705 86.3373 14.2569C86.4374 14.5056 86.6861 14.6057 87.0321 14.6057C87.2663 14.5934 87.4988 14.5599 87.727 14.5056C87.8899 14.4671 88.0572 14.4508 88.2245 14.457H88.4218C88.7104 14.462 88.9977 14.4955 89.2797 14.5571C89.5236 14.6147 89.7727 14.6482 90.0231 14.6572H90.4206C90.598 14.6616 90.7723 14.6095 90.9182 14.5085C91.0182 14.4599 90.9668 14.3598 90.9182 14.2226V14.1739C90.8696 14.0253 90.8181 13.7765 90.9182 13.6764H90.9668C90.9797 13.6764 90.992 13.6815 91.0011 13.6906C91.0103 13.6997 91.0154 13.7121 91.0154 13.725C91.0154 13.7736 91.064 13.8251 91.064 13.8737C91.0947 14.0753 91.1809 14.2644 91.3128 14.4199C91.6167 14.8057 92.009 15.1127 92.4566 15.3149C92.65 15.4348 92.8161 15.594 92.9442 15.7822C93.0722 15.9703 93.1594 16.1832 93.2 16.4072C93.2 16.656 92.9512 16.8047 92.8026 16.9047C92.5121 17.0666 92.1903 17.1641 91.8589 17.1907C91.7102 17.1907 91.573 17.0906 91.573 17.042C91.3966 16.8769 91.2606 16.6734 91.1755 16.4472L90.8896 16.0012C90.8121 15.9079 90.712 15.8361 90.5989 15.7925C90.4857 15.749 90.3633 15.7352 90.2433 15.7524C89.972 15.7579 89.7034 15.8081 89.4484 15.9011C89.3998 15.9011 89.3483 15.9497 89.2997 16.0012C89.2511 16.0526 89.2997 16.1498 89.2997 16.1985L89.7458 16.9419L89.7944 17.042C89.843 17.0906 89.8945 17.0906 89.9917 17.0906H90.2405C90.287 17.0857 90.3339 17.0922 90.3773 17.1097C90.4207 17.1271 90.4591 17.155 90.4892 17.1907C90.5379 17.2393 90.5893 17.3394 90.6379 17.388C90.7257 17.5851 90.8625 17.7564 91.0354 17.8855C91.2178 18.0314 91.4489 18.1019 91.6816 18.0828C91.7794 18.0891 91.8774 18.0725 91.9676 18.0342C92.6562 17.8427 93.3217 17.5761 93.9521 17.2393H94.3009C94.517 17.2509 94.7294 17.1804 94.8957 17.042C95.0957 16.755 95.2781 16.4561 95.4418 16.147C95.5152 16.0274 95.554 15.8898 95.554 15.7495C95.554 15.6092 95.5152 15.4717 95.4418 15.352C95.1788 14.965 94.9619 14.5485 94.7956 14.111C94.747 14.111 94.6955 14.0624 94.6469 14.0624C94.5411 13.9997 94.421 13.9653 94.2981 13.9623C94.1494 13.9623 94.0493 14.011 94.0493 14.111L94.7928 15.5408C94.8607 15.6617 94.8782 15.8045 94.8414 15.9382C94.7168 16.2269 94.549 16.495 94.3438 16.7332C94.3309 16.7332 94.3185 16.7383 94.3094 16.7474C94.3003 16.7565 94.2952 16.7689 94.2952 16.7818C94.2952 16.7818 94.2466 16.7818 94.2952 16.6817C94.3654 16.3544 94.415 16.023 94.4439 15.6895C94.2437 15.2434 94.0115 14.8124 93.749 14.3998C93.6332 14.2585 93.5643 14.0846 93.5517 13.9023C93.5538 13.8635 93.5701 13.8269 93.5976 13.7994C93.625 13.772 93.6617 13.7557 93.7004 13.7536C93.8005 13.705 93.8977 13.705 93.9864 13.6535C94.2352 13.6049 94.5325 13.5534 94.6326 13.4047C94.9567 12.9308 95.1608 12.3852 95.2274 11.8149C95.2322 11.7771 95.2493 11.742 95.276 11.7148C95.2889 11.7148 95.3013 11.7199 95.3104 11.729C95.3195 11.7381 95.3246 11.7505 95.3246 11.7634C95.4157 12.3877 95.2742 13.0237 94.9271 13.5506C94.9271 13.5992 94.8785 13.6507 94.8785 13.6993C94.8834 13.737 94.9004 13.7722 94.9271 13.7994C95.0758 13.8994 95.5734 13.848 95.9709 13.6507C96.2386 13.645 96.505 13.6114 96.7658 13.5506C96.8659 13.5506 96.9145 13.502 97.0146 13.502C97.0209 13.502 97.0273 13.5032 97.0332 13.5057C97.0391 13.5081 97.0444 13.5117 97.0489 13.5162C97.0535 13.5207 97.057 13.5261 97.0595 13.532C97.0619 13.5379 97.0632 13.5442 97.0632 13.5506C96.8562 13.8161 96.7045 14.1204 96.6171 14.4456L96.4198 14.6429C96.2816 14.7286 96.1649 14.8448 96.0787 14.9826C95.9924 15.1204 95.9389 15.2761 95.9223 15.4378C95.9219 15.4511 95.9242 15.4643 95.9291 15.4766C95.9339 15.4889 95.9413 15.5001 95.9507 15.5095C95.9601 15.5189 95.9712 15.5262 95.9836 15.5311C95.9959 15.536 96.0091 15.5383 96.0223 15.5379C96.0709 15.5379 96.1224 15.5379 96.1224 15.4893C96.171 15.4893 96.2225 15.4407 96.2711 15.4407C96.3197 15.4407 96.3197 15.4893 96.3197 15.5408L96.0338 15.9382C95.9963 16.0158 95.9768 16.1009 95.9768 16.187C95.9768 16.2732 95.9963 16.3582 96.0338 16.4358C96.0824 16.5359 96.0338 16.5845 96.0824 16.6846C96.1256 16.7778 96.1967 16.8553 96.2858 16.9065C96.3749 16.9577 96.4776 16.9801 96.5799 16.9705C96.9218 16.9406 97.2567 16.8566 97.5722 16.7217C97.6208 16.7217 97.6722 16.6731 97.7209 16.6731C98.1483 16.5084 98.6148 16.4736 99.062 16.573C99.4841 16.5077 99.8703 16.2974 100.154 15.9783C100.329 16.0007 100.489 16.0898 100.6 16.227C100.829 16.4703 101.106 16.6624 101.414 16.7905C101.722 16.9187 102.054 16.98 102.388 16.9705H102.536C102.636 16.9705 102.636 16.9219 102.636 16.8704C102.636 16.819 102.588 16.7704 102.536 16.7217L102.139 16.5244C101.783 16.3685 101.5 16.0848 101.344 15.7295C101.235 15.3975 101.085 15.0805 100.898 14.7859C100.849 14.7373 100.849 14.6858 100.798 14.6372C100.749 14.5371 100.698 14.4885 100.649 14.3884C101.095 14.5371 101.344 14.886 101.641 15.4321C101.779 15.6728 101.973 15.8766 102.206 16.026C102.44 16.1754 102.706 16.266 102.982 16.29H103.231C103.258 16.2628 103.275 16.2277 103.28 16.1899C103.231 16.3386 103.231 16.29 103.231 16.29L103.191 16.3243ZM95.2503 9.78464C95.2503 9.79792 95.245 9.81065 95.2356 9.82003C95.2262 9.82941 95.2135 9.83469 95.2002 9.83469C95.187 9.83469 95.1742 9.82941 95.1649 9.82003C95.1555 9.81065 95.1502 9.79792 95.1502 9.78464C95.0997 9.39355 95.0037 9.00969 94.8642 8.64085C94.8156 8.54077 94.7642 8.49216 94.7155 8.39208C94.6155 8.24339 94.5182 8.14331 94.6155 7.99462C94.6388 7.96431 94.6687 7.93961 94.7028 7.92229C94.737 7.90498 94.7745 7.8955 94.8128 7.89453H94.9128C95.0647 7.99094 95.1858 8.12888 95.2617 8.292C95.4002 8.77893 95.4002 9.29486 95.2617 9.78179L95.2503 9.78464ZM98.9676 15.6437C98.9648 15.7359 98.9293 15.8241 98.8675 15.8925C98.7087 15.9545 98.5404 15.9883 98.37 15.9926C98.2853 15.9869 98.2017 15.9706 98.1212 15.944C98.0726 15.8953 98.1212 15.7953 98.1212 15.7953C98.1709 15.6778 98.2455 15.5726 98.3398 15.4867C98.434 15.4008 98.5458 15.3363 98.6673 15.2977C98.6984 15.2837 98.732 15.2765 98.766 15.2765C98.8 15.2765 98.8336 15.2837 98.8646 15.2977C98.9647 15.3463 98.9647 15.5837 98.9647 15.6466L98.9676 15.6437ZM99.9598 13.3104C99.9541 13.395 99.9378 13.4786 99.9112 13.5592C99.9112 13.6078 99.8626 13.6592 99.7625 13.6592C99.6624 13.6592 99.6624 13.5105 99.6624 13.5105C99.6652 13.3394 99.631 13.1697 99.5624 13.013C99.4623 12.8643 99.1163 12.3668 98.9161 12.4182C98.8068 12.4609 98.7088 12.5284 98.6302 12.6155C98.5301 12.7642 98.5301 12.8128 98.4815 12.8128C98.4329 12.8128 98.3814 12.8128 98.3814 12.7128C98.3552 12.5979 98.3552 12.4787 98.3814 12.3639C98.4218 12.2439 98.4715 12.1273 98.5301 12.015C98.5701 11.9151 98.6199 11.8193 98.6788 11.7291C98.7056 11.6865 98.7422 11.6508 98.7854 11.625C98.8286 11.5992 98.8773 11.5839 98.9275 11.5804C98.9831 11.5831 99.0374 11.5978 99.0868 11.6235C99.1361 11.6491 99.1794 11.6852 99.2135 11.7291C99.3622 11.9264 99.3622 11.9264 99.3622 11.9779C99.4401 12.0774 99.5232 12.1729 99.611 12.2638C99.7626 12.4297 99.8621 12.6365 99.8969 12.8586C99.9374 13.0036 99.9538 13.1543 99.9455 13.3047L99.9598 13.3104ZM91.2784 16.2842L91.4271 16.5702C91.5272 16.7675 91.5758 16.919 91.6759 16.919H91.776C92.0116 16.9033 92.2369 16.8165 92.4222 16.6703C92.5223 16.5702 92.4709 16.5216 92.4709 16.4215C92.4709 16.3729 92.4222 16.3729 92.4222 16.3214C92.3686 16.2345 92.3344 16.1369 92.3222 16.0355C92.2736 15.8382 92.2221 15.6866 92.0362 15.7495C91.7523 15.7913 91.4652 15.8075 91.1784 15.7981C91.1248 15.7977 91.0726 15.8148 91.0297 15.8467C90.9811 15.9468 91.0783 15.9954 91.1784 16.0955C91.227 16.187 91.2784 16.2385 91.2784 16.2842ZM130.845 18.2859C130.805 18.2283 130.788 18.1581 130.796 18.0886C130.796 17.9885 130.748 17.9399 130.748 17.8398C130.745 17.7169 130.71 17.5967 130.648 17.4909C130.611 17.4314 130.559 17.3822 130.499 17.3477C130.438 17.3132 130.369 17.2946 130.299 17.2936C130.272 17.2902 130.245 17.2928 130.219 17.3013C130.193 17.3097 130.17 17.3237 130.15 17.3422C129.953 17.4423 129.801 17.5396 129.864 17.7883C129.964 18.1372 130.013 18.3831 130.113 18.6833C130.113 18.732 130.162 18.8806 130.213 18.8806L130.808 18.6833C130.821 18.6833 130.833 18.6782 130.842 18.6691C130.851 18.66 130.856 18.6476 130.856 18.6347C131.005 18.5346 130.957 18.4374 130.856 18.2859H130.845ZM129.987 16.8561C129.844 16.6972 129.676 16.5629 129.49 16.4587C129.415 16.4214 129.349 16.3711 129.292 16.31H129.244C129.224 16.2914 129.201 16.2774 129.175 16.269C129.149 16.2606 129.122 16.258 129.095 16.2614C129.011 16.2735 128.93 16.3058 128.861 16.3556C128.792 16.4054 128.736 16.4712 128.698 16.5473C128.773 16.7526 128.892 16.939 129.046 17.0935L129.095 17.1421C129.129 17.2046 129.179 17.2564 129.241 17.2913C129.303 17.3262 129.373 17.3429 129.444 17.3394C129.572 17.325 129.693 17.2733 129.793 17.1907C129.841 17.0906 130.042 16.9419 129.99 16.8418L129.987 16.8561ZM116.087 15.9611H115.229C115.129 15.9611 115.032 16.3586 115.032 16.5559C115.081 16.8047 115.318 16.8418 115.53 16.9047C115.612 16.9258 115.695 16.9421 115.778 16.9534C115.836 16.9602 115.893 16.9497 115.944 16.9231C115.995 16.8966 116.037 16.8553 116.064 16.8047C116.164 16.5672 116.231 16.3169 116.262 16.0612V15.9983C116.202 15.9642 116.133 15.9474 116.064 15.9497L116.087 15.9611ZM129.493 17.6997C129.325 17.683 129.164 17.6242 129.025 17.5287C128.886 17.4332 128.773 17.3042 128.698 17.1535C128.649 17.0534 128.549 17.0048 128.5 16.9047C128.396 16.7956 128.279 16.6996 128.151 16.6188C128.051 16.5187 127.903 16.4215 127.903 16.3329C127.839 16.1715 127.789 16.005 127.754 15.8353C127.727 15.7172 127.694 15.6007 127.654 15.4864V15.4378C127.643 15.3431 127.608 15.2528 127.551 15.1757C127.495 15.0985 127.42 15.0372 127.334 14.9975C127.215 15.0056 127.096 14.989 126.985 14.9489C126.699 14.9489 126.339 14.9002 126.19 14.6629C126.129 14.5755 126.097 14.4718 126.097 14.3655C126.097 14.2593 126.129 14.1556 126.19 14.0681C126.238 13.9681 126.238 13.9195 126.29 13.8194C126.404 13.4485 126.42 13.0547 126.339 12.6756C126.339 12.627 126.29 12.5755 126.29 12.5269C126.241 12.3782 126.19 12.178 126.241 12.1294C126.293 12.0808 126.29 12.0808 126.39 12.0808C126.459 12.0785 126.527 12.0953 126.587 12.1294C126.636 12.1294 126.687 12.1294 126.687 12.178C126.88 12.2394 127.08 12.2731 127.282 12.2781C127.637 12.2607 127.989 12.1943 128.326 12.0808C128.921 11.7949 129.518 11.1372 129.47 10.3422C129.37 9.54731 128.875 8.75237 127.931 7.90883L127.883 7.86022C127.734 7.76014 127.597 7.61145 127.597 7.51137C127.597 7.41128 127.883 7.31406 128.094 7.26259C128.143 7.26259 128.194 7.26259 128.194 7.21398H128.243C128.484 7.16142 128.718 7.0778 128.938 6.9652C129.633 6.51913 129.584 5.67558 129.533 5.22664V5.17803C129.533 5.12942 129.484 5.02934 129.432 5.02934H129.384L129.335 5.07795C129.265 5.15862 129.181 5.22554 129.086 5.27525C128.859 5.40923 128.605 5.49397 128.343 5.52403C128.194 5.57264 127.994 5.57264 127.845 5.62411C127.151 5.87288 126.753 6.21888 126.604 6.66782C126.56 6.7992 126.545 6.9391 126.563 7.07686C126.58 7.21462 126.628 7.3466 126.705 7.46275C126.964 7.80067 127.251 8.11632 127.562 8.40638C128.06 8.90393 128.555 9.35001 128.706 10.0449C128.73 10.2409 128.696 10.4395 128.607 10.616C128.519 10.7925 128.38 10.939 128.209 11.0371C127.98 11.1607 127.725 11.2283 127.465 11.2344C127.103 11.2287 126.747 11.1438 126.421 10.9856C126.023 10.7836 125.641 10.5513 125.278 10.2908C124.728 9.88349 124.127 9.54991 123.49 9.29854C123.207 9.16986 122.905 9.08594 122.595 9.04977C122.158 8.97622 121.738 8.82516 121.354 8.60369C121.254 8.50361 121.106 8.45499 121.006 8.35491C120.716 8.07799 120.354 7.88864 119.962 7.80875C119.813 7.76013 119.676 7.76014 119.564 7.70867C119.354 7.68826 119.151 7.62083 118.97 7.51137C118.875 7.46165 118.791 7.39474 118.721 7.31406C118.434 7.09874 118.135 6.90015 117.826 6.71929C117.267 6.47822 116.684 6.29521 116.087 6.17313C115.901 6.11579 115.742 5.99156 115.641 5.82428L115.355 5.53833C114.858 5.14086 114.412 4.89208 113.865 4.89208H113.717C113.418 4.94198 113.141 5.08045 112.922 5.28955C112.376 5.7871 111.729 6.23318 111.135 6.67926C110.21 7.30664 109.348 8.02198 108.561 8.81529C107.818 9.61022 107.517 10.6025 107.272 11.5461C107.215 11.6885 107.181 11.8391 107.171 11.9922C107.123 12.2409 107.023 12.5383 106.974 12.7871C106.625 14.1768 106.279 15.618 104.838 16.5044C104.818 16.5159 104.803 16.5335 104.794 16.5546C104.785 16.5756 104.783 16.5991 104.788 16.6213C104.794 16.6436 104.806 16.6634 104.824 16.6779C104.842 16.6924 104.864 16.7008 104.887 16.7017C105.103 16.7551 105.329 16.7461 105.541 16.6758C105.752 16.6054 105.938 16.4766 106.079 16.3043C106.378 15.851 106.71 15.42 107.071 15.0146C107.099 14.9879 107.134 14.9709 107.171 14.966C107.22 14.966 107.22 15.0146 107.22 15.0661C107.174 15.2557 107.075 15.4283 106.934 15.5637C106.821 15.7186 106.725 15.8854 106.648 16.0612C106.451 16.4738 106.157 16.8321 105.79 17.1049C105.763 17.1316 105.728 17.1487 105.69 17.1535L105.642 17.2021C105.642 17.3022 105.69 17.3508 105.839 17.3508C106.634 17.3508 107.18 16.8047 107.726 16.2585C107.753 16.2318 107.788 16.2147 107.826 16.2099H107.926C107.975 16.2099 108.026 16.31 108.124 16.3586C108.291 16.5209 108.495 16.6406 108.718 16.7074C108.981 16.668 109.247 16.6517 109.513 16.6588H109.711C109.997 16.7589 110.305 16.8561 110.568 16.9448C110.766 16.9934 110.966 17.0935 111.163 17.1421C111.412 17.1421 111.609 16.8933 111.758 16.696C111.807 16.5514 111.807 16.3945 111.758 16.2499C111.747 16.1661 111.73 16.0831 111.709 16.0012C111.758 15.9525 111.809 16.0012 111.907 16.0012H112.104C112.104 16.0012 112.253 15.9011 112.204 15.8038C112.139 15.5763 112.043 15.3588 111.918 15.1576C111.805 15.0027 111.709 14.8358 111.632 14.6601C111.53 14.4158 111.378 14.1956 111.186 14.0138C110.986 13.8192 110.834 13.5815 110.74 13.319V13.2189C110.74 13.1703 110.84 13.2189 110.84 13.2189C110.94 13.2675 111.037 13.3676 111.126 13.4162C111.396 13.6914 111.741 13.8813 112.118 13.9623C112.479 14.028 112.846 14.0444 113.211 14.011C113.311 14.011 113.359 13.9109 113.359 13.8136C113.189 13.4814 113.056 13.1314 112.962 12.7699C112.794 12.2572 112.759 11.7099 112.862 11.1801C112.862 11.1315 112.91 11.1315 112.962 11.1315C113.013 11.1315 113.062 11.2315 113.062 11.2802V11.3288C113.111 12.0722 113.162 12.8186 113.608 13.4133C113.719 13.583 113.873 13.7202 114.054 13.8108C114.182 13.8767 114.299 13.9605 114.403 14.0596C114.447 14.1244 114.474 14.1989 114.482 14.2766C114.491 14.3543 114.48 14.4329 114.452 14.5056L113.905 15.3635C113.772 15.5409 113.675 15.743 113.62 15.9583C113.595 16.1557 113.595 16.3555 113.62 16.553V16.6016C113.613 16.6016 113.607 16.6004 113.601 16.5979C113.595 16.5955 113.59 16.5919 113.585 16.5874C113.581 16.5829 113.577 16.5775 113.575 16.5716C113.572 16.5657 113.571 16.5594 113.571 16.553C113.455 16.4083 113.38 16.2351 113.354 16.0515C113.328 15.8679 113.351 15.6807 113.422 15.5093C113.522 15.312 113.968 14.6515 114.068 14.4656C114.117 14.417 114.169 14.3169 114.117 14.2683C113.965 14.173 113.796 14.1061 113.62 14.071C113.519 14.071 113.471 14.1711 113.422 14.2197C113.422 14.2326 113.417 14.245 113.408 14.2541C113.399 14.2632 113.387 14.2683 113.374 14.2683L112.679 15.5093V15.5579C112.615 15.6802 112.598 15.8214 112.63 15.9554C112.679 16.1527 112.73 16.3529 112.779 16.5016C112.775 16.5284 112.778 16.5557 112.786 16.5814C112.795 16.6071 112.809 16.6306 112.827 16.6503C112.854 16.8441 112.922 17.0302 113.025 17.1964C113.093 17.2589 113.181 17.2944 113.274 17.2965H113.671C113.773 17.3331 113.861 17.4025 113.92 17.4938C113.99 17.5745 114.074 17.6414 114.169 17.6911C114.366 17.7397 114.615 17.8398 114.815 17.8884C115.101 17.9885 115.41 18.0371 115.71 18.1372C115.87 18.1943 116.038 18.2281 116.207 18.2373C116.292 18.2419 116.377 18.2264 116.454 18.1921C116.532 18.1578 116.6 18.1057 116.653 18.04C116.756 17.9648 116.84 17.8678 116.901 17.7561C116.961 17.6443 116.996 17.5205 117.002 17.3937C117.051 17.1449 117.151 17.1449 117.288 17.1449C117.358 17.1534 117.428 17.1361 117.486 17.0963C117.681 16.9376 117.834 16.7334 117.932 16.5016C117.984 16.4473 118.019 16.3785 118.032 16.3043C118.05 16.2846 118.064 16.2611 118.073 16.2354C118.081 16.2097 118.084 16.1824 118.08 16.1556C118.08 16.0069 117.98 16.0069 117.932 16.0069H116.939C116.653 16.0069 116.493 16.2928 116.393 16.553L116.245 16.839C116.198 16.9153 116.132 16.9783 116.054 17.0218C115.976 17.0654 115.888 17.0881 115.798 17.0878C115.75 17.0878 115.601 17.0391 115.55 17.0391C115.152 16.9391 114.755 16.8418 114.557 16.4444C114.529 16.3261 114.546 16.2014 114.606 16.0955C114.846 15.8063 115.112 15.5401 115.401 15.3006C115.823 15.1774 116.19 14.9154 116.445 14.5571C116.493 14.5085 116.493 14.4084 116.545 14.3598C116.593 14.2597 116.593 14.1625 116.742 14.0739C116.791 14.0252 116.842 14.0739 116.891 14.1225C116.906 14.3259 116.872 14.53 116.791 14.7172C116.791 14.7659 116.742 14.8173 116.742 14.8659V14.9145H117.039C117.442 14.9141 117.842 14.8642 118.232 14.7659C118.626 14.6919 119.024 14.6422 119.424 14.6172H119.573C119.756 14.6087 119.94 14.625 120.119 14.6658C120.268 14.6658 120.468 14.7144 120.617 14.7144H120.814C121.028 14.735 121.243 14.6823 121.423 14.5649C121.603 14.4475 121.739 14.2724 121.806 14.0681C121.906 13.7822 121.906 13.2103 121.758 12.4297V12.3811C121.758 12.3324 121.758 12.3324 121.806 12.281C121.855 12.2295 121.906 12.281 121.906 12.3296C122.084 12.8609 122.201 13.4106 122.255 13.9681C122.329 14.4361 122.517 14.8789 122.801 15.2577C122.986 15.5356 123.237 15.7631 123.531 15.9194C123.826 16.0757 124.155 16.1559 124.488 16.1527C124.637 16.1527 124.837 16.1041 124.986 16.1041H125.235C125.665 16.1063 126.09 16.2057 126.476 16.3949C126.863 16.584 127.202 16.858 127.468 17.1964V17.245C127.441 17.2717 127.406 17.2888 127.368 17.2936L127.268 17.245C126.77 16.8476 126.276 16.4501 125.629 16.3872C125.529 16.3872 125.381 16.3386 125.28 16.3386C125.097 16.3301 124.913 16.3464 124.734 16.3872C124.537 16.3872 124.385 16.4358 124.237 16.4358C124.035 16.4266 123.835 16.393 123.642 16.3357C122.899 16.0869 122.301 15.2434 122.104 14.6972C122.076 14.6705 122.041 14.6535 122.004 14.6486H121.955C121.855 14.6972 121.855 14.7487 121.855 14.7973C121.872 14.998 121.905 15.1969 121.955 15.3921C122.055 15.7896 122.104 16.2871 122.698 16.6817C122.976 16.899 123.298 17.0514 123.642 17.1278H123.991C124.186 17.0871 124.386 17.0707 124.586 17.0792C125.215 17.0788 125.827 17.2881 126.324 17.6739C126.419 17.7237 126.503 17.7906 126.573 17.8712C126.677 17.9703 126.794 18.0541 126.922 18.12C127.012 18.1583 127.11 18.1749 127.208 18.1686C127.288 18.1748 127.369 18.1648 127.446 18.1393C127.522 18.1138 127.593 18.0732 127.654 18.0199C127.711 17.9801 127.782 17.9628 127.851 17.9713C128.048 17.9713 128.137 18.12 128.297 18.3202C128.397 18.4203 128.446 18.569 128.583 18.6691C128.749 18.8075 128.962 18.8779 129.178 18.8664H129.907C129.812 18.4573 129.679 18.0581 129.51 17.6739L129.493 17.6997ZM109.685 15.9611C109.655 15.9969 109.616 16.0247 109.573 16.0421C109.53 16.0596 109.483 16.0661 109.436 16.0612C109.352 16.0499 109.269 16.0337 109.187 16.0126C109.039 15.9125 108.99 15.7638 108.939 15.515C108.935 15.4882 108.938 15.4609 108.946 15.4352C108.955 15.4095 108.969 15.386 108.987 15.3663H109.087C109.175 15.3719 109.261 15.3971 109.339 15.4401C109.416 15.4832 109.482 15.543 109.533 15.6151C109.633 15.5665 109.782 15.7638 109.682 15.964L109.685 15.9611ZM109.934 12.8328C109.879 12.8852 109.811 12.92 109.736 12.9329C109.688 12.8843 109.588 12.8328 109.588 12.7356C109.539 12.6355 109.488 12.5869 109.39 12.5869C109.298 12.589 109.21 12.6246 109.142 12.687C109.093 12.7356 108.944 12.8357 108.893 12.8843C108.696 13.0816 108.447 13.2818 108.395 13.5306C108.395 13.6306 108.395 13.6306 108.347 13.6793C108.345 13.7716 108.309 13.86 108.247 13.928C108.198 13.9766 108.247 13.928 108.198 13.928C108.149 13.928 108.149 13.928 108.098 13.8794C108.049 13.8794 108.049 13.8308 108.049 13.7793C108.02 13.5665 108.046 13.3497 108.124 13.1495C108.202 12.9493 108.33 12.7724 108.495 12.6355C108.69 12.4488 108.872 12.2502 109.042 12.0408C109.142 11.9407 109.19 11.8435 109.29 11.7548C109.339 11.7062 109.439 11.7548 109.639 11.9521C109.785 12.1757 109.918 12.4078 110.037 12.647C109.98 12.6981 109.944 12.7684 109.937 12.8443L109.934 12.8328ZM113.651 7.62003L113.402 7.8688C113.077 8.14547 112.789 8.46258 112.544 8.81242C112.443 8.94988 112.359 9.0998 112.296 9.2585L112.247 9.30712H112.178C112.149 9.07455 112.166 8.83849 112.227 8.61227C112.45 8.06697 112.83 7.60023 113.319 7.27117C113.377 7.23136 113.447 7.21406 113.517 7.22256C113.555 7.22352 113.592 7.233 113.627 7.25031C113.661 7.26763 113.691 7.29234 113.714 7.32264C113.717 7.42023 113.7 7.51743 113.665 7.60859L113.651 7.62003Z" fill="#EA1C2D"/>
    </g>
    <defs>
        <linearGradient id="paint0_linear_683_8510" x1="65.794" y1="25.8146" x2="65.794" y2="35.1912" gradientUnits="userSpaceOnUse">
            <stop stop-color="#838587"/>
            <stop offset="0.5" stop-color="#909295"/>
            <stop offset="0.7" stop-color="#797A7D"/>
            <stop offset="1" stop-color="#4E4F51"/>
        </linearGradient>
        <clipPath id="clip0_683_8510">
            <rect width="131.25" height="35" fill="white" transform="translate(0.228516 0.5)"/>
        </clipPath>
    </defs>
</svg>
