<svg width="127" height="50" viewBox="0 0 127 50" fill="none" xmlns="http://www.w3.org/2000/svg">
    <g clip-path="url(#clip0_683_8478)">
        <path d="M76.3674 12.4432H55.6953L57.4119 6.25513H78.084L76.3674 12.4432Z" fill="#CF202E"/>
        <path d="M62.3582 22.8938L73.4668 22.8957L75.1834 16.7076H54.5113L49.6094 34.3808H59.1729L62.3582 22.8938Z" fill="#CF202E"/>
        <path fill-rule="evenodd" clip-rule="evenodd" d="M85.8025 27.984C85.689 27.9266 85.5887 27.8462 85.5079 27.7481C85.4271 27.6499 85.3674 27.5361 85.3328 27.4137C85.3157 27.3423 85.3088 27.2689 85.3123 27.1956C85.3163 27.1263 85.3276 27.0576 85.3458 26.9906L89.0903 13.4869C89.1247 13.3196 89.193 13.1612 89.2911 13.0214C89.3892 12.8816 89.515 12.7634 89.6607 12.6743C89.9347 12.5214 90.4062 12.4432 91.0716 12.4432H101.397L103.112 6.25513H88.6355C85.9982 6.25513 84.1623 6.56826 83.0887 7.16283C82.0151 7.7574 81.2751 8.81048 80.852 10.3594L75.5046 29.6149C75.426 29.8896 75.3785 30.1721 75.363 30.4574C75.3488 30.7456 75.3764 31.0344 75.445 31.3148C75.6929 32.2467 76.3042 32.9922 77.2921 33.5514C78.2799 34.1106 79.4858 34.3752 80.9359 34.3752H96.0891L97.8057 28.1872H86.7307C86.409 28.1995 86.0896 28.1295 85.8025 27.984Z" fill="#CF202E"/>
        <path fill-rule="evenodd" clip-rule="evenodd" d="M28.6769 6.25513L22.1981 29.6149C22.12 29.8896 22.0731 30.1722 22.0583 30.4574C22.0441 30.7456 22.0718 31.0344 22.1403 31.3148C22.3882 32.2467 22.9977 32.9922 23.9874 33.5514C24.9771 34.1106 26.1793 34.3752 27.6312 34.3752H38.41C41.0473 34.3752 42.8832 34.0621 43.9568 33.4694C45.0304 32.8767 45.7704 31.8199 46.1934 30.271L52.8624 6.25513H43.2989L37.5041 27.149C37.469 27.3155 37.4003 27.4731 37.3022 27.6122C37.2042 27.7513 37.0788 27.8689 36.9338 27.958C36.6616 28.1089 36.1882 28.1891 35.5228 28.1891H33.8752C33.5518 28.2006 33.2308 28.1287 32.9432 27.9803C32.8298 27.9228 32.7295 27.8425 32.6487 27.7443C32.5678 27.6462 32.5082 27.5323 32.4735 27.41C32.4564 27.338 32.4495 27.264 32.453 27.19C32.4563 27.1212 32.4676 27.0531 32.4866 26.9869L38.2385 6.25513H28.6769Z" fill="#CF202E"/>
        <path d="M104.367 6.25513C104.515 6.25513 104.659 6.29886 104.782 6.38078C104.904 6.4627 105 6.57914 105.056 6.71537C105.113 6.8516 105.127 7.0015 105.099 7.14613C105.07 7.29075 104.999 7.42359 104.895 7.52786C104.79 7.63212 104.657 7.70313 104.513 7.7319C104.368 7.76066 104.218 7.7459 104.082 7.68947C103.946 7.63304 103.829 7.53748 103.747 7.41488C103.666 7.29227 103.622 7.14813 103.622 7.00068C103.617 6.90157 103.634 6.80262 103.669 6.71012C103.705 6.61763 103.76 6.53363 103.83 6.46348C103.9 6.39333 103.984 6.33857 104.077 6.3027C104.169 6.26683 104.268 6.25063 104.367 6.25513ZM104.367 7.58034C104.443 7.58316 104.519 7.56994 104.59 7.54153C104.66 7.51311 104.724 7.47016 104.776 7.41545C104.829 7.36075 104.87 7.29554 104.896 7.22407C104.922 7.1526 104.932 7.07648 104.927 7.00068C104.927 6.84941 104.866 6.70434 104.759 6.59738C104.653 6.49042 104.507 6.43033 104.356 6.43033C104.205 6.43033 104.06 6.49042 103.953 6.59738C103.846 6.70434 103.786 6.84941 103.786 7.00068C103.78 7.07839 103.792 7.15639 103.819 7.22937C103.846 7.30236 103.889 7.3686 103.944 7.42361C103.999 7.47861 104.065 7.52108 104.139 7.54813C104.212 7.57517 104.29 7.58616 104.367 7.58034ZM104.392 7.09946H104.252V7.32499H104.138V6.64281H104.405C104.557 6.64281 104.619 6.70805 104.619 6.8292V6.92239C104.621 6.95607 104.613 6.98961 104.595 7.01835C104.578 7.04708 104.551 7.06957 104.52 7.08269L104.707 7.33058H104.567L104.392 7.09946ZM104.392 6.74905H104.243V6.99136H104.392C104.466 6.99136 104.49 6.9634 104.49 6.91307V6.83106C104.5 6.76583 104.47 6.74905 104.401 6.74905H104.392Z" fill="#CF202E"/>
        <path d="M3.75421 43.4541C5.66653 43.4541 7.0607 44.8184 7.0607 46.7215C7.0607 48.6245 5.67585 49.9907 3.75421 49.9907C1.83256 49.9907 0.457031 48.6263 0.457031 46.7215C0.457031 44.8166 1.84934 43.4541 3.75421 43.4541ZM3.75421 44.647C2.58929 44.647 1.84002 45.5379 1.84002 46.7215C1.84002 47.905 2.58556 48.7978 3.75421 48.7978C4.92285 48.7978 5.67585 47.9013 5.67585 46.7215C5.67585 45.5416 4.91912 44.647 3.75421 44.647Z" fill="white"/>
        <path d="M8.00781 43.5585H12.4811V44.7141H9.35352V46.0877H12.4121V47.2433H9.35352V49.877H8.00781V43.5585Z" fill="white"/>
        <path d="M13.418 43.5585H17.8912V44.7141H14.7637V46.0877H17.8223V47.2433H14.7637V49.877H13.418V43.5585Z" fill="white"/>
        <path d="M18.8242 43.5585H20.1699V49.877H18.8242V43.5585Z" fill="white"/>
        <path d="M21.1172 46.7215C21.1172 44.7812 22.5859 43.4541 24.433 43.4541C24.981 43.4327 25.524 43.5661 25.9997 43.8391C26.4754 44.112 26.8645 44.5135 27.1226 44.9974L25.967 45.5659C25.8192 45.2875 25.5983 45.0548 25.3279 44.8928C25.0576 44.7309 24.7481 44.6459 24.433 44.647C23.3333 44.647 22.5002 45.5286 22.5002 46.7215C22.5002 47.9144 23.3333 48.7978 24.433 48.7978C24.7485 48.8008 25.0587 48.7166 25.3294 48.5544C25.6001 48.3923 25.8207 48.1585 25.967 47.8789L27.1226 48.4381C26.8643 48.9225 26.4753 49.3247 25.9999 49.5992C25.5245 49.8736 24.9816 50.0093 24.433 49.9907C22.5859 49.9907 21.1172 48.6636 21.1172 46.7215Z" fill="white"/>
        <path d="M27.9297 43.5585H29.2754V49.877H27.9297V43.5585Z" fill="white"/>
        <path d="M34.5504 48.7885H31.7266L31.3296 49.877H29.8516L32.2951 43.5585H33.9819L36.4161 49.877H34.9474L34.5504 48.7885ZM32.0863 47.6217H34.1813L33.1394 44.7327L32.0863 47.6217Z" fill="white"/>
        <path d="M37.0039 43.5585H38.3496V48.6934H41.0205V49.877H37.0039V43.5585Z" fill="white"/>
        <path d="M44.3828 43.5585H47.7079C48.912 43.5585 49.5271 44.3264 49.5271 45.1688C49.5271 45.9647 49.035 46.4959 48.4386 46.6189C49.1114 46.7214 49.6501 47.3757 49.6501 48.1715C49.6501 49.1184 49.0164 49.877 47.8123 49.877H44.3828V43.5585ZM47.4153 46.0971C47.5098 46.1019 47.6042 46.0876 47.6929 46.0548C47.7817 46.022 47.8628 45.9715 47.9314 45.9064C47.9999 45.8413 48.0546 45.7629 48.0919 45.676C48.1292 45.5891 48.1484 45.4955 48.1484 45.4009C48.1484 45.3063 48.1292 45.2127 48.0919 45.1258C48.0546 45.0389 47.9999 44.9605 47.9314 44.8954C47.8628 44.8303 47.7817 44.7798 47.6929 44.747C47.6042 44.7142 47.5098 44.6999 47.4153 44.7047H45.7285V46.0971H47.4153ZM47.4619 48.7307C47.9745 48.7307 48.2764 48.4381 48.2764 47.9852C48.2764 47.5863 47.9931 47.2396 47.4619 47.2396H45.7285V48.7307H47.4619Z" fill="white"/>
        <path d="M50.662 43.5585H55.1353V44.7141H52.0077V46.0877H55.0663V47.2433H52.0077V48.7121H55.1334V49.877H50.6602L50.662 43.5585Z" fill="white"/>
        <path d="M57.6479 44.742H55.8008V43.5585H60.8332V44.742H59.0029V49.877H57.6479V44.742Z" fill="white"/>
        <path d="M63.1596 44.742H61.3125V43.5585H66.3449V44.742H64.5072V49.877H63.1521L63.1596 44.742Z" fill="white"/>
        <path d="M67.2148 43.5585H68.5606V49.877H67.2148V43.5585Z" fill="white"/>
        <path d="M71.1524 45.633V49.877H69.8086V43.5585H71.1916L74.1178 47.659V43.5585H75.4636V49.877H74.1589L71.1524 45.633Z" fill="white"/>
        <path d="M79.775 43.454C80.293 43.4355 80.8068 43.5536 81.2648 43.7963C81.7227 44.0391 82.1089 44.398 82.3844 44.837L81.2661 45.4428C81.1019 45.198 80.88 44.9974 80.6199 44.8586C80.3599 44.7198 80.0697 44.6471 79.775 44.6469C78.6306 44.6469 77.7955 45.5285 77.7955 46.7214C77.7955 47.9143 78.6306 48.7977 79.775 48.7977C80.2725 48.8012 80.7554 48.6297 81.1393 48.3131V47.5471H79.4618V46.3915H82.4682V48.8145C82.1329 49.1965 81.7185 49.501 81.2537 49.7069C80.789 49.9129 80.2851 50.0154 79.7768 50.0074C77.9297 50.0074 76.4219 48.7194 76.4219 46.7288C76.4219 44.7382 77.9279 43.454 79.775 43.454Z" fill="white"/>
        <path d="M85.9609 43.5585H88.917C90.2907 43.5585 91.04 44.4904 91.04 45.5957C91.04 46.7009 90.2814 47.6124 88.917 47.6124H87.3141V49.877H85.9684L85.9609 43.5585ZM88.7362 44.7141H87.3141V46.4568H88.7437C89.2749 46.4568 89.6756 46.1157 89.6756 45.5864C89.6765 45.4658 89.6523 45.3463 89.6046 45.2356C89.5568 45.1249 89.4865 45.0253 89.3981 44.9433C89.3097 44.8612 89.2052 44.7984 89.0913 44.759C88.9773 44.7195 88.8564 44.7042 88.7362 44.7141Z" fill="white"/>
        <path d="M95.1986 48.7885H92.3749L91.9741 49.877H90.4961L92.9396 43.5585H94.6264L97.0606 49.877H95.5919L95.1986 48.7885ZM92.7346 47.6217H94.8296L93.7858 44.7327L92.7346 47.6217Z" fill="white"/>
        <path d="M99.9861 47.6124H99.002V49.877H97.6562V43.5585H100.612C101.928 43.5585 102.733 44.4196 102.733 45.5957C102.733 46.714 102.033 47.3104 101.35 47.4707L102.773 49.877H101.227L99.9861 47.6124ZM100.413 44.7141H99.002V46.4568H100.413C100.953 46.4568 101.36 46.1157 101.36 45.5864C101.36 45.057 100.946 44.7141 100.405 44.7141H100.413Z" fill="white"/>
        <path d="M105.105 44.742H103.258V43.5585H108.29V44.742H106.452V49.877H105.097L105.105 44.742Z" fill="white"/>
        <path d="M110.506 45.633V49.877H109.16V43.5585H110.543L113.471 47.659V43.5585H114.817V49.877H113.512L110.506 45.633Z" fill="white"/>
        <path d="M116.064 43.5585H120.538V44.7141H117.41V46.0877H120.471V47.2433H117.41V48.7121H120.536V49.877H116.062L116.064 43.5585Z" fill="white"/>
        <path d="M123.918 47.6124H122.932V49.877H121.586V43.5585H124.542C125.86 43.5585 126.665 44.4196 126.665 45.5957C126.665 46.714 125.964 47.3104 125.282 47.4707L126.702 49.877H125.159L123.918 47.6124ZM124.344 44.7141H122.932V46.4568H124.344C124.883 46.4568 125.291 46.1157 125.291 45.5864C125.291 45.057 124.883 44.7141 124.344 44.7141Z" fill="white"/>
    </g>
    <defs>
        <clipPath id="clip0_683_8478">
            <rect width="126.247" height="50" fill="white" transform="translate(0.457031)"/>
        </clipPath>
    </defs>
</svg>
