<svg width="52" height="50" viewBox="0 0 52 50" fill="none" xmlns="http://www.w3.org/2000/svg">
    <path d="M5.02612 18.3618L2.72099 20.6669C2.08298 21.2799 1.57536 22.0153 1.22861 22.8293C0.881863 23.6432 0.703125 24.5188 0.703125 25.4035C0.703125 26.2882 0.881863 27.1638 1.22861 27.9778C1.57536 28.7917 2.08298 29.5272 2.72099 30.1401L21.2905 48.8948C21.7325 49.3453 22.242 49.7179 22.8062 50V27.2666L5.02612 18.3618Z" fill="#3D89F5"/>
    <path d="M46.9052 18.3618L49.2103 20.6669C49.8483 21.2799 50.3559 22.0153 50.7027 22.8293C51.0494 23.6432 51.2282 24.5188 51.2282 25.4035C51.2282 26.2882 51.0494 27.1638 50.7027 27.9778C50.3559 28.7917 49.8483 29.5272 49.2103 30.1401L30.6388 48.8948C30.1967 49.3453 29.6872 49.7179 29.123 50V27.2666L46.9052 18.3618Z" fill="#1656B9"/>
    <path d="M42.4447 13.6569L30.8243 2.0049C30.2093 1.37058 29.4731 0.866265 28.6595 0.521865C27.8458 0.177465 26.9713 0 26.0878 0C25.2042 0 24.3297 0.177465 23.516 0.521865C22.7024 0.866265 21.9662 1.37058 21.3512 2.0049L9.69922 13.6569L26.0246 21.8038L42.4447 13.6569Z" fill="#85B5F8"/>
</svg>
